<svg xmlns="http://www.w3.org/2000/svg" width="14.195" height="15.431" viewBox="0 0 14.195 15.431">
  <path id="block-user" d="M33.068,9.927V9.132a1.808,1.808,0,1,0-3.617,0v.784a2.415,2.415,0,0,0-1.658,2.29v.814A2.414,2.414,0,0,0,30.2,15.431h2.08A2.414,2.414,0,0,0,34.7,13.02v-.814A2.415,2.415,0,0,0,33.068,9.927Zm-1.808-1.4a.6.6,0,0,1,.6.6V9.8H30.657V9.132A.6.6,0,0,1,31.26,8.529Zm2.23,4.491a1.207,1.207,0,0,1-1.206,1.206H30.2A1.207,1.207,0,0,1,29,13.02v-.814A1.207,1.207,0,0,1,30.2,11h2.08a1.207,1.207,0,0,1,1.206,1.206ZM26.377,8.137a4.069,4.069,0,1,0-4.069-4.069A4.073,4.073,0,0,0,26.377,8.137Zm0-6.932a2.863,2.863,0,1,1-2.863,2.863A2.866,2.866,0,0,1,26.377,1.206ZM32.033,12.6a.753.753,0,1,1-.753-.753A.753.753,0,0,1,32.033,12.6ZM27.191,9.946a.6.6,0,0,1-.6.6h-.6a4.285,4.285,0,0,0-4.28,4.28.6.6,0,1,1-1.206,0,5.491,5.491,0,0,1,5.485-5.485h.6A.6.6,0,0,1,27.191,9.946Z" transform="translate(-20.5)" fill="#fff"/>
</svg>
