<svg id="Calendar" xmlns="http://www.w3.org/2000/svg" width="46" height="44.235" viewBox="0 0 46 44.235">
  <path id="Path_227" data-name="Path 227" d="M44.167,6.411H40.333V4.941a3.069,3.069,0,0,0-6.133,0v1.47H28.067V4.941a3.069,3.069,0,0,0-6.133,0v1.47H15.8V4.941a3.069,3.069,0,0,0-6.133,0v1.47H5.833A3.757,3.757,0,0,0,2,10.087V39.492a3.757,3.757,0,0,0,3.833,3.676H27.3a.736.736,0,1,0,0-1.47H5.833a2.261,2.261,0,0,1-2.3-2.205V16.7H46.467V29.2A.767.767,0,0,0,48,29.2V10.087a3.757,3.757,0,0,0-3.833-3.676Zm-8.433-1.47a1.535,1.535,0,0,1,3.067,0V9.351a1.535,1.535,0,0,1-3.067,0Zm-12.267,0a1.535,1.535,0,0,1,3.067,0V9.351a1.535,1.535,0,0,1-3.067,0Zm-12.267,0a1.535,1.535,0,0,1,3.067,0V9.351a1.535,1.535,0,0,1-3.067,0ZM46.467,15.233H3.533V10.087a2.261,2.261,0,0,1,2.3-2.205H9.667v1.47a3.069,3.069,0,0,0,6.133,0V7.881h6.133v1.47a3.069,3.069,0,0,0,6.133,0V7.881H34.2v1.47a3.069,3.069,0,0,0,6.133,0V7.881h3.833a2.261,2.261,0,0,1,2.3,2.205Z" transform="translate(-2 -2)" fill="#491e3c"/>
  <path id="Path_228" data-name="Path 228" d="M28.133,28.533A1.533,1.533,0,0,0,26.6,27H23.533A1.533,1.533,0,0,0,22,28.533v2.3a1.533,1.533,0,0,0,1.533,1.533H26.6a1.533,1.533,0,0,0,1.533-1.533Zm-4.6,2.3v-2.3H26.6v2.3Z" transform="translate(-6.667 -8.666)" fill="#491e3c"/>
  <path id="Path_229" data-name="Path 229" d="M16.133,28.533A1.533,1.533,0,0,0,14.6,27H11.533A1.533,1.533,0,0,0,10,28.533v2.3a1.533,1.533,0,0,0,1.533,1.533H14.6a1.533,1.533,0,0,0,1.533-1.533Zm-4.6,2.3v-2.3H14.6v2.3Z" transform="translate(-3.867 -8.666)" fill="#491e3c"/>
  <path id="Path_230" data-name="Path 230" d="M50.6,32.367a1.533,1.533,0,0,0,1.533-1.533v-2.3A1.533,1.533,0,0,0,50.6,27H47.533A1.533,1.533,0,0,0,46,28.533v2.3a1.533,1.533,0,0,0,1.533,1.533Zm-3.067-3.833H50.6v2.3H47.533Z" transform="translate(-12.267 -8.666)" fill="#491e3c"/>
  <path id="Path_231" data-name="Path 231" d="M28.133,37.533A1.533,1.533,0,0,0,26.6,36H23.533A1.533,1.533,0,0,0,22,37.533v2.3a1.533,1.533,0,0,0,1.533,1.533H26.6a1.533,1.533,0,0,0,1.533-1.533Zm-4.6,2.3v-2.3H26.6v2.3Z" transform="translate(-6.667 -11.066)" fill="#491e3c"/>
  <path id="Path_232" data-name="Path 232" d="M16.133,37.533A1.533,1.533,0,0,0,14.6,36H11.533A1.533,1.533,0,0,0,10,37.533v2.3a1.533,1.533,0,0,0,1.533,1.533H14.6a1.533,1.533,0,0,0,1.533-1.533Zm-4.6,2.3v-2.3H14.6v2.3Z" transform="translate(-3.867 -11.066)" fill="#491e3c"/>
  <path id="Path_233" data-name="Path 233" d="M26.6,45H23.533A1.533,1.533,0,0,0,22,46.533v2.3a1.533,1.533,0,0,0,1.533,1.533H26.6a1.533,1.533,0,0,0,1.533-1.533v-2.3A1.533,1.533,0,0,0,26.6,45Zm-3.067,3.833v-2.3H26.6v2.3Z" transform="translate(-6.667 -13.465)" fill="#491e3c"/>
  <path id="Path_234" data-name="Path 234" d="M35.533,32.367H38.6a1.533,1.533,0,0,0,1.533-1.533v-2.3A1.533,1.533,0,0,0,38.6,27H35.533A1.533,1.533,0,0,0,34,28.533v2.3A1.533,1.533,0,0,0,35.533,32.367Zm0-3.833H38.6v2.3H35.533Z" transform="translate(-9.467 -8.666)" fill="#491e3c"/>
  <path id="Path_235" data-name="Path 235" d="M34,39.833a1.533,1.533,0,0,0,1.533,1.533.767.767,0,1,0,0-1.533v-2.3H38.6A.767.767,0,1,0,38.6,36H35.533A1.533,1.533,0,0,0,34,37.533Z" transform="translate(-9.467 -11.066)" fill="#491e3c"/>
  <path id="Path_236" data-name="Path 236" d="M14.6,45H11.533A1.533,1.533,0,0,0,10,46.533v2.3a1.533,1.533,0,0,0,1.533,1.533H14.6a1.533,1.533,0,0,0,1.533-1.533v-2.3A1.533,1.533,0,0,0,14.6,45Zm-3.067,3.833v-2.3H14.6v2.3Z" transform="translate(-3.867 -13.465)" fill="#491e3c"/>
  <path id="Path_237" data-name="Path 237" d="M45.967,36a9.967,9.967,0,1,0,9.967,9.967A9.967,9.967,0,0,0,45.967,36Zm0,18.4A8.433,8.433,0,1,1,54.4,45.967,8.433,8.433,0,0,1,45.967,54.4Z" transform="translate(-9.933 -11.698)" fill="#491e3c"/>
  <path id="Path_238" data-name="Path 238" d="M51.74,44.74,45.777,50.7l-2.71-2.711a.767.767,0,1,0-1.084,1.084l3.252,3.253a.767.767,0,0,0,1.084,0l6.505-6.505A.767.767,0,1,0,51.74,44.74Z" transform="translate(-11.277 -13.685)" fill="#491e3c"/>
</svg>
