<svg id="checked" xmlns="http://www.w3.org/2000/svg" width="33.058" height="33.058" viewBox="0 0 33.058 33.058">
  <g id="Group_528" data-name="Group 528" transform="translate(7.849 4.153)">
    <g id="Group_527" data-name="Group 527">
      <path id="Path_271" data-name="Path 271" d="M145.831,64.693a1.246,1.246,0,0,0-1.762,0L129.123,79.6l-5.393-5.857a1.246,1.246,0,1,0-1.833,1.688l6.271,6.811a1.244,1.244,0,0,0,.89.4h.027a1.247,1.247,0,0,0,.88-.363l15.865-15.823A1.246,1.246,0,0,0,145.831,64.693Z" transform="translate(-121.568 -64.327)" fill="#1c1c1c"/>
    </g>
  </g>
  <g id="Group_530" data-name="Group 530">
    <g id="Group_529" data-name="Group 529">
      <path id="Path_272" data-name="Path 272" d="M31.812,15.283a1.246,1.246,0,0,0-1.246,1.246A14.037,14.037,0,1,1,16.529,2.492a1.246,1.246,0,1,0,0-2.492A16.529,16.529,0,1,0,33.058,16.529,1.246,1.246,0,0,0,31.812,15.283Z" fill="#1c1c1c"/>
    </g>
  </g>
</svg>
