<svg xmlns="http://www.w3.org/2000/svg" width="96.527" height="103" viewBox="0 0 96.527 103">
  <path id="community" d="M86.584,25.557a13.315,13.315,0,1,0-14.076-.013,20.02,20.02,0,0,0-10.235,8.677,19.915,19.915,0,0,0-3.981-2.02,13.313,13.313,0,1,0-14.056,0,19.827,19.827,0,0,0-3.981,2.02,20.017,20.017,0,0,0-10.234-8.677,13.316,13.316,0,1,0-14.078.012A19.951,19.951,0,0,0,3,44.194v13.29a6.658,6.658,0,0,0,6.657,6.645h1.664V90.71a6.632,6.632,0,0,0,11.65,4.349,6.632,6.632,0,0,0,11.65-4.349V69.851a6.6,6.6,0,0,0,3.329.924h1.664V97.355a6.632,6.632,0,0,0,11.65,4.349,6.632,6.632,0,0,0,11.65-4.349V70.774h1.664a6.6,6.6,0,0,0,3.329-.924V90.71a6.632,6.632,0,0,0,11.65,4.349,6.632,6.632,0,0,0,11.65-4.349V64.129H92.87a6.658,6.658,0,0,0,6.657-6.645V44.194A19.951,19.951,0,0,0,86.584,25.557ZM75.968,28.016a15.617,15.617,0,0,1,7.2-.03l-3.61,5.044Zm1.413,7.692-2.175,2.171L72,29.433c.216-.11.421-.241.642-.342Zm4.349,0,4.73-6.61c.221.1.439.206.656.316L83.9,37.879ZM69.57,14.29a9.986,9.986,0,1,1,9.986,9.968A9.987,9.987,0,0,1,69.57,14.29ZM52.891,47.069,51.263,49.5l-1.628-2.435.945-12.81c.228-.008.453-.033.682-.033s.454.025.682.035ZM41.278,20.935A9.986,9.986,0,1,1,51.263,30.9a9.987,9.987,0,0,1-9.986-9.968ZM22.971,27.581a16.555,16.555,0,0,1,3.034.312c-.523,1.763-1.7,3.01-3.034,3.01s-2.521-1.258-3.041-3.032A16.666,16.666,0,0,1,22.971,27.581ZM12.986,14.29a9.986,9.986,0,1,1,9.986,9.968A9.987,9.987,0,0,1,12.986,14.29ZM31.292,90.71a3.329,3.329,0,0,1-6.657,0V55.823H21.307V90.71a3.329,3.329,0,0,1-6.657,0V37.548H11.321V60.806H9.657a3.329,3.329,0,0,1-3.329-3.323V44.194A16.631,16.631,0,0,1,16.747,28.8c.937,3.195,3.362,5.427,6.224,5.427s5.271-2.219,6.216-5.4a16.617,16.617,0,0,1,8.406,7.519,19.84,19.84,0,0,0-6.3,14.493V90.71ZM64.577,67.452H62.913V44.194H59.585V97.355a3.329,3.329,0,0,1-6.657,0V62.468H49.6V97.355a3.329,3.329,0,0,1-6.657,0V44.194H39.614V67.452H37.949a3.329,3.329,0,0,1-3.329-3.323V50.839A16.633,16.633,0,0,1,47.209,34.746l-.975,13.217L51.263,55.5l5.029-7.532-.975-13.217A16.633,16.633,0,0,1,67.906,50.839v13.29A3.329,3.329,0,0,1,64.577,67.452ZM96.2,57.484a3.329,3.329,0,0,1-3.329,3.323H91.206V39.21H87.877v51.5a3.329,3.329,0,0,1-6.657,0V55.823H77.892V90.71a3.329,3.329,0,0,1-6.657,0V50.839a19.84,19.84,0,0,0-6.3-14.493,16.533,16.533,0,0,1,4.211-5.065l4.775,12.584,5.637-5.627,5.637,5.627,4.781-12.606A16.572,16.572,0,0,1,96.2,44.194Z" transform="translate(-3 -1)" fill="#431c53"/>
</svg>
