<svg xmlns="http://www.w3.org/2000/svg" width="104" height="111.172" viewBox="0 0 104 111.172">
  <path id="community" d="M93.055,27.506a14.346,14.346,0,1,0-15.166-.014,21.581,21.581,0,0,0-11.028,9.365,21.442,21.442,0,0,0-4.289-2.18,14.343,14.343,0,1,0-15.145,0,21.348,21.348,0,0,0-4.289,2.18,21.577,21.577,0,0,0-11.026-9.365,14.346,14.346,0,1,0-15.168.013A21.532,21.532,0,0,0,3,47.621V61.966a7.18,7.18,0,0,0,7.172,7.172h1.793v28.69a7.143,7.143,0,0,0,12.552,4.694,7.143,7.143,0,0,0,12.552-4.694V75.313a7.1,7.1,0,0,0,3.586,1h1.793V105A7.143,7.143,0,0,0,55,109.694,7.143,7.143,0,0,0,67.552,105V76.31h1.793a7.1,7.1,0,0,0,3.586-1V97.828a7.143,7.143,0,0,0,12.552,4.694,7.143,7.143,0,0,0,12.552-4.694V69.138h1.793A7.18,7.18,0,0,0,107,61.966V47.621A21.532,21.532,0,0,0,93.055,27.506ZM81.617,30.159a16.8,16.8,0,0,1,7.755-.032l-3.889,5.444Zm1.522,8.3L80.8,40.805l-3.45-9.116c.233-.118.454-.26.692-.369Zm4.685,0,5.1-7.135c.238.109.473.222.706.341l-3.461,9.138Zm-13.1-23.117A10.759,10.759,0,1,1,85.483,26.1,10.769,10.769,0,0,1,74.724,15.345Zm-17.97,35.38L55,53.353l-1.754-2.629L54.265,36.9c.246-.009.488-.036.735-.036s.49.027.735.038ZM44.241,22.517A10.759,10.759,0,1,1,55,33.276,10.769,10.769,0,0,1,44.241,22.517ZM24.517,29.69a17.806,17.806,0,0,1,3.269.337c-.563,1.9-1.836,3.249-3.269,3.249S21.8,31.918,21.241,30A17.925,17.925,0,0,1,24.517,29.69ZM13.759,15.345A10.759,10.759,0,1,1,24.517,26.1,10.769,10.769,0,0,1,13.759,15.345ZM33.483,97.828a3.586,3.586,0,0,1-7.172,0V60.172H22.724V97.828a3.586,3.586,0,0,1-7.172,0V40.448H11.966v25.1H10.172a3.59,3.59,0,0,1-3.586-3.586V47.621A17.951,17.951,0,0,1,17.811,31c1.01,3.448,3.622,5.858,6.706,5.858s5.679-2.4,6.7-5.828a17.914,17.914,0,0,1,9.057,8.116,21.432,21.432,0,0,0-6.789,15.643V97.828Zm35.862-25.1H67.552v-25.1H63.966V105a3.586,3.586,0,1,1-7.172,0V67.345H53.207V105a3.586,3.586,0,0,1-7.172,0V47.621H42.448v25.1H40.655a3.59,3.59,0,0,1-3.586-3.586V54.793a17.947,17.947,0,0,1,13.563-17.37L49.581,51.689,55,59.819l5.419-8.13L59.368,37.423a17.947,17.947,0,0,1,13.563,17.37V69.138A3.59,3.59,0,0,1,69.345,72.724Zm34.069-10.759a3.59,3.59,0,0,1-3.586,3.586H98.034V42.241H94.448V97.828a3.586,3.586,0,0,1-7.172,0V60.172H83.69V97.828a3.586,3.586,0,1,1-7.172,0V54.793A21.432,21.432,0,0,0,69.729,39.15a17.838,17.838,0,0,1,4.537-5.467L79.41,47.266l6.073-6.073,6.073,6.073L96.708,33.66a17.9,17.9,0,0,1,6.706,13.961Z" transform="translate(-3 -1)" fill="#fff"/>
</svg>
