<svg id="dish" xmlns="http://www.w3.org/2000/svg" width="95.22" height="95.389" viewBox="0 0 95.22 95.389">
  <g id="Group_404" data-name="Group 404" transform="translate(52.857 29.548)">
    <g id="Group_403" data-name="Group 403">
      <path id="Path_217" data-name="Path 217" d="M269.631,126.744,268.8,124a5.961,5.961,0,0,0-11.288,0l-.834,2.744a15.414,15.414,0,0,0-.43,7.143,6.718,6.718,0,0,0,3.46,4.682l-.934,20.874a4.113,4.113,0,0,0,1.039,3.2,4.536,4.536,0,0,0,6.409.287q.15-.137.287-.287a4.058,4.058,0,0,0,1.039-3.11l-.939-20.964a6.717,6.717,0,0,0,3.455-4.679A15.414,15.414,0,0,0,269.631,126.744Zm-2.129,6.691a4.117,4.117,0,0,1-2.695,3.1,1.3,1.3,0,0,0-.84,1.274l.987,21.923a1.5,1.5,0,0,1-.39,1.177,2.007,2.007,0,0,1-2.823,0,1.559,1.559,0,0,1-.382-1.262l.979-21.838a1.3,1.3,0,0,0-.84-1.274,4.118,4.118,0,0,1-2.695-3.1,12.807,12.807,0,0,1,.357-5.93l.834-2.745a3.368,3.368,0,0,1,6.317,0l.834,2.745A12.824,12.824,0,0,1,267.5,133.435Z" transform="translate(-256.012 -119.955)" fill="#fff"/>
    </g>
  </g>
  <g id="Group_406" data-name="Group 406" transform="translate(28.079 29.556)">
    <g id="Group_405" data-name="Group 405">
      <path id="Path_218" data-name="Path 218" d="M148.987,120a1.3,1.3,0,0,0-1.3,1.3v11.151l-3.516,3.516a1.3,1.3,0,0,0-.381.983l1.136,22.727a1.769,1.769,0,0,1-.491,1.323,1.829,1.829,0,0,1-2.586.011L141.84,161a1.768,1.768,0,0,1-.491-1.323l1.144-22.727a1.3,1.3,0,0,0-.379-.983l-3.517-3.516V121.3a1.3,1.3,0,0,0-2.6,0v11.688a1.3,1.3,0,0,0,.381.918l3.488,3.49-1.108,22.154a4.387,4.387,0,0,0,8.764.427q.01-.213,0-.427l-1.108-22.154,3.488-3.49a1.3,1.3,0,0,0,.381-.918V121.3A1.3,1.3,0,0,0,148.987,120Z" transform="translate(-136 -120)" fill="#fff"/>
    </g>
  </g>
  <g id="Group_408" data-name="Group 408" transform="translate(31.939 24.721)">
    <g id="Group_407" data-name="Group 407">
      <path id="Path_219" data-name="Path 219" d="M161.3,120a1.3,1.3,0,0,0-1.3,1.3v10.39a1.3,1.3,0,1,0,2.6,0V121.3A1.3,1.3,0,0,0,161.3,120Z" transform="translate(-160 -120)" fill="#fff"/>
    </g>
  </g>
  <g id="Group_410" data-name="Group 410" transform="translate(36.73 24.721)">
    <g id="Group_409" data-name="Group 409">
      <path id="Path_220" data-name="Path 220" d="M185.3,120a1.3,1.3,0,0,0-1.3,1.3v10.39a1.3,1.3,0,1,0,2.6,0V121.3A1.3,1.3,0,0,0,185.3,120Z" transform="translate(-184 -120)" fill="#fff"/>
    </g>
  </g>
  <g id="Group_412" data-name="Group 412">
    <g id="Group_411" data-name="Group 411">
      <path id="Path_221" data-name="Path 221" d="M47.61,0A47.695,47.695,0,1,0,95.22,47.695,47.652,47.652,0,0,0,47.61,0Zm0,92.21A44.515,44.515,0,1,1,92.046,47.695,44.475,44.475,0,0,1,47.61,92.21Z" fill="#fff"/>
    </g>
  </g>
  <g id="Group_414" data-name="Group 414" transform="translate(43.41 76.616)">
    <g id="Group_413" data-name="Group 413">
      <path id="Path_222" data-name="Path 222" d="M222.531,384.121a1.3,1.3,0,0,0-1.419-1.166l-.05.006h.005a23.85,23.85,0,0,1-5.5,0,1.3,1.3,0,0,0-.3,2.581,26.309,26.309,0,0,0,6.1,0A1.3,1.3,0,0,0,222.531,384.121Z" transform="translate(-214.113 -382.949)" fill="#fff"/>
    </g>
  </g>
  <g id="Group_416" data-name="Group 416" transform="translate(69.079 30.824)">
    <g id="Group_415" data-name="Group 415">
      <path id="Path_223" data-name="Path 223" d="M343.045,134.517a1.3,1.3,0,0,0-1.83-.16l-.006,0a1.3,1.3,0,0,0-.156,1.83,23.376,23.376,0,0,1-1.378,31.619,1.3,1.3,0,1,0,1.834,1.84A25.974,25.974,0,0,0,343.045,134.517Z" transform="translate(-339.295 -134.053)" fill="#fff"/>
    </g>
  </g>
  <g id="Group_419" data-name="Group 419" transform="translate(37.197 16.068)">
    <g id="Group_418" data-name="Group 418">
      <g id="Group_417" data-name="Group 417">
        <path id="Path_224" data-name="Path 224" d="M186.359,105.743h0Z" transform="translate(-185.058 -101.568)" fill="#fff"/>
        <path id="Path_225" data-name="Path 225" d="M194.511,80.748a26.2,26.2,0,0,0-15.287.939,1.3,1.3,0,1,0,.91,2.43,23.593,23.593,0,0,1,13.766-.844,1.3,1.3,0,0,0,.61-2.525Z" transform="translate(-178.382 -80.027)" fill="#fff"/>
      </g>
    </g>
  </g>
  <g id="Group_421" data-name="Group 421" transform="translate(16.282 32.446)">
    <g id="Group_420" data-name="Group 420">
      <path id="Path_226" data-name="Path 226" d="M89.4,174.811a23.374,23.374,0,0,1-2.348-30.244,1.3,1.3,0,1,0-2.076-1.561l-.022.031a25.974,25.974,0,0,0,2.606,33.613,1.3,1.3,0,1,0,1.84-1.839Z" transform="translate(-79.989 -142.488)" fill="#fff"/>
    </g>
  </g>
</svg>
