<svg id="dish" xmlns="http://www.w3.org/2000/svg" width="103.375" height="103.375" viewBox="0 0 103.375 103.375">
  <g id="Group_404" data-name="Group 404" transform="translate(55.136 25.834)">
    <g id="Group_403" data-name="Group 403">
      <path id="Path_217" data-name="Path 217" d="M274.079,128.962l-1.106-3.641a7.908,7.908,0,0,0-14.976,0l-1.106,3.641a20.449,20.449,0,0,0-.57,9.476,8.912,8.912,0,0,0,4.59,6.211l-1.239,27.693a5.456,5.456,0,0,0,1.378,4.242,6.018,6.018,0,0,0,8.5.381q.2-.182.381-.381a5.383,5.383,0,0,0,1.378-4.126l-1.246-27.811a8.911,8.911,0,0,0,4.583-6.208A20.45,20.45,0,0,0,274.079,128.962Zm-2.824,8.876a5.462,5.462,0,0,1-3.575,4.116,1.723,1.723,0,0,0-1.115,1.69l1.309,29.085a1.993,1.993,0,0,1-.517,1.561,2.662,2.662,0,0,1-3.746,0,2.068,2.068,0,0,1-.506-1.675l1.3-28.971a1.723,1.723,0,0,0-1.115-1.69,5.463,5.463,0,0,1-3.575-4.116,16.989,16.989,0,0,1,.474-7.867l1.106-3.642a4.468,4.468,0,0,1,8.38,0l1.106,3.642A17.013,17.013,0,0,1,271.255,137.838Z" transform="translate(-256.012 -119.955)" fill="#fff"/>
    </g>
  </g>
  <g id="Group_406" data-name="Group 406" transform="translate(29.29 25.844)">
    <g id="Group_405" data-name="Group 405">
      <path id="Path_218" data-name="Path 218" d="M153.229,120a1.723,1.723,0,0,0-1.723,1.723v14.793l-4.664,4.664a1.723,1.723,0,0,0-.5,1.3l1.508,30.151a2.346,2.346,0,0,1-.651,1.756,2.426,2.426,0,0,1-3.431.015l-.015-.015a2.346,2.346,0,0,1-.651-1.756l1.518-30.151a1.723,1.723,0,0,0-.5-1.3l-4.666-4.664V121.723a1.723,1.723,0,0,0-3.446,0v15.506a1.723,1.723,0,0,0,.5,1.218l4.628,4.629-1.47,29.391a5.82,5.82,0,0,0,11.626.566q.014-.283,0-.566l-1.47-29.391,4.628-4.63a1.723,1.723,0,0,0,.5-1.218V121.723A1.723,1.723,0,0,0,153.229,120Z" transform="translate(-136 -120)" fill="#fff"/>
    </g>
  </g>
  <g id="Group_408" data-name="Group 408" transform="translate(34.458 25.844)">
    <g id="Group_407" data-name="Group 407">
      <path id="Path_219" data-name="Path 219" d="M161.723,120A1.723,1.723,0,0,0,160,121.723v13.783a1.723,1.723,0,1,0,3.446,0V121.723A1.723,1.723,0,0,0,161.723,120Z" transform="translate(-160 -120)" fill="#fff"/>
    </g>
  </g>
  <g id="Group_410" data-name="Group 410" transform="translate(39.627 25.844)">
    <g id="Group_409" data-name="Group 409">
      <path id="Path_220" data-name="Path 220" d="M185.723,120A1.723,1.723,0,0,0,184,121.723v13.783a1.723,1.723,0,0,0,3.446,0V121.723A1.723,1.723,0,0,0,185.723,120Z" transform="translate(-184 -120)" fill="#fff"/>
    </g>
  </g>
  <g id="Group_412" data-name="Group 412">
    <g id="Group_411" data-name="Group 411">
      <path id="Path_221" data-name="Path 221" d="M51.688,0a51.688,51.688,0,1,0,51.688,51.688A51.688,51.688,0,0,0,51.688,0Zm0,99.929A48.242,48.242,0,1,1,99.929,51.688,48.242,48.242,0,0,1,51.688,99.929Z" fill="#fff"/>
    </g>
  </g>
  <g id="Group_414" data-name="Group 414" transform="translate(46.112 82.474)">
    <g id="Group_413" data-name="Group 413">
      <path id="Path_222" data-name="Path 222" d="M225.281,384.5a1.723,1.723,0,0,0-1.882-1.547l-.067.008.007,0a31.649,31.649,0,0,1-7.3,0,1.723,1.723,0,1,0-.4,3.423,34.906,34.906,0,0,0,8.1,0A1.723,1.723,0,0,0,225.281,384.5Z" transform="translate(-214.113 -382.949)" fill="#fff"/>
    </g>
  </g>
  <g id="Group_416" data-name="Group 416" transform="translate(73.072 28.87)">
    <g id="Group_415" data-name="Group 415">
      <path id="Path_223" data-name="Path 223" d="M344.271,134.669a1.723,1.723,0,0,0-2.427-.213l-.007.006a1.723,1.723,0,0,0-.207,2.428,31.012,31.012,0,0,1-1.828,41.948,1.723,1.723,0,1,0,2.433,2.441A34.458,34.458,0,0,0,344.271,134.669Z" transform="translate(-339.295 -134.053)" fill="#fff"/>
    </g>
  </g>
  <g id="Group_419" data-name="Group 419" transform="translate(38.417 17.235)">
    <g id="Group_418" data-name="Group 418">
      <g id="Group_417" data-name="Group 417">
        <path id="Path_224" data-name="Path 224" d="M186.361,105.743h0Z" transform="translate(-184.636 -100.205)" fill="#fff"/>
        <path id="Path_225" data-name="Path 225" d="M199.779,80.984A34.764,34.764,0,0,0,179.5,82.23a1.721,1.721,0,1,0,1.208,3.224,31.3,31.3,0,0,1,18.263-1.12,1.723,1.723,0,0,0,.81-3.349Z" transform="translate(-178.382 -80.027)" fill="#fff"/>
      </g>
    </g>
  </g>
  <g id="Group_421" data-name="Group 421" transform="translate(17.227 30.687)">
    <g id="Group_420" data-name="Group 420">
      <path id="Path_226" data-name="Path 226" d="M92.481,185.37a31.009,31.009,0,0,1-3.115-40.123,1.723,1.723,0,1,0-2.755-2.07l-.03.041a34.458,34.458,0,0,0,3.458,44.593,1.726,1.726,0,0,0,2.441-2.44Z" transform="translate(-79.989 -142.488)" fill="#fff"/>
    </g>
  </g>
</svg>
