<svg id="graduation-cap" xmlns="http://www.w3.org/2000/svg" width="127.146" height="102.74" viewBox="0 0 127.146 102.74">
  <g id="Group_396" data-name="Group 396" transform="translate(0 0)">
    <path id="Path_213" data-name="Path 213" d="M122.922,69.784,72.239,43.49c-4.369-2.32-11.8-2.32-16.166,0L4.224,69.784C.583,71.64,0,74.269,0,75.661s.583,3.867,4.224,5.877L8.447,83.7v24.747a7.58,7.58,0,0,0-4.515,6.96,7.7,7.7,0,0,0,4.369,6.96L1.748,144.49H20.1l-6.554-22.118a7.675,7.675,0,0,0-.146-13.92V86.334l7.719,4.021v32.171a2.6,2.6,0,0,0,.437,1.392A52.1,52.1,0,0,0,63.5,144.49a51.815,51.815,0,0,0,41.8-20.571,2.6,2.6,0,0,0,.437-1.392V90.51l17.186-8.971c3.641-1.856,4.224-4.485,4.224-5.877C127,74.269,126.563,71.64,122.922,69.784Zm-21.846,51.969a48.319,48.319,0,0,1-75.152,0V92.521l30.148,15.312a18.659,18.659,0,0,0,8.01,1.7,16.873,16.873,0,0,0,8.156-1.856l28.837-15Zm19.807-44.545-17.477,9.126a1.655,1.655,0,0,0-1.6.928L70.2,103.5c-3.058,1.7-9.03,1.7-12.234,0L19.079,83.7l44.712-5.568a2.374,2.374,0,0,0,2.039-2.629,2.3,2.3,0,0,0-2.476-2.165l-51.849,6.5L6.263,77.208a3.013,3.013,0,0,1-1.6-1.392c0-.155.291-.773,1.6-1.392L58.111,47.975a14.288,14.288,0,0,1,5.971-1.237A14.019,14.019,0,0,1,70.2,47.975l50.684,26.294c1.311.619,1.6,1.237,1.6,1.547A4.094,4.094,0,0,1,120.883,77.208Z" transform="translate(0 -41.75)" fill="#fff"/>
  </g>
</svg>
