<svg id="Group_261" data-name="Group 261" xmlns="http://www.w3.org/2000/svg" width="174.122" height="141.474" viewBox="0 0 174.122 141.474">
  <path id="Path_154" data-name="Path 154" d="M174.122,64.748a74.425,74.425,0,0,1-20.568,5.637,35.5,35.5,0,0,0,15.7-19.73A71.337,71.337,0,0,1,146.622,59.3a35.694,35.694,0,0,0-61.748,24.41,36.756,36.756,0,0,0,.827,8.14A101.039,101.039,0,0,1,12.123,54.508a35.706,35.706,0,0,0,10.97,47.709,35.253,35.253,0,0,1-16.128-4.4v.392a35.861,35.861,0,0,0,28.6,35.075,35.628,35.628,0,0,1-9.359,1.175,31.561,31.561,0,0,1-6.758-.609A36.036,36.036,0,0,0,52.8,158.72a71.726,71.726,0,0,1-44.26,15.225A66.859,66.859,0,0,1,0,173.455a100.5,100.5,0,0,0,54.761,16.019c65.688,0,101.6-54.413,101.6-101.578,0-1.578-.054-3.1-.131-4.614A71.213,71.213,0,0,0,174.122,64.748Z" transform="translate(0 -48)"/>
</svg>
