<svg xmlns="http://www.w3.org/2000/svg" width="117.387" height="112.014" viewBox="0 0 117.387 112.014">
  <g id="growth" transform="translate(0 -0.467)">
    <path id="Path_209" data-name="Path 209" d="M58.3,252.781a30.023,30.023,0,0,1-11.961-2.47l-18.1-7.868a68.63,68.63,0,0,0-20.576-5.362l-5.943-.594A1.912,1.912,0,0,1,0,234.583V215.939a1.91,1.91,0,0,1,.383-1.147c.444-.594,11.1-14.51,27.368-10.89a69.1,69.1,0,0,1,21.09,8.674,21.294,21.294,0,0,0,11.246,3.145h18.1a8.693,8.693,0,0,1,7.395,4.126l15.587-17.958a16.535,16.535,0,0,1,13.142-6.507h1.165a1.913,1.913,0,0,1,1.751,2.683l-14.1,32.04a25.118,25.118,0,0,1-16.787,14.158l-2.48.62-14.428,5.772A30.011,30.011,0,0,1,58.3,252.781ZM3.827,232.851l4.221.422a72.491,72.491,0,0,1,21.722,5.661l18.1,7.868a26.318,26.318,0,0,0,20.146.3l14.547-5.819a1.967,1.967,0,0,1,.247-.079l2.606-.652a21.262,21.262,0,0,0,14.213-11.986l12.859-29.223a12.788,12.788,0,0,0-8.34,4.949l-17.268,19.9c0,.074,0,.148,0,.223a8.7,8.7,0,0,1-8.693,8.693H52.936a30.445,30.445,0,0,0-9.641,1.564l-.7-1.784L42,231.069l.1-.032a34.242,34.242,0,0,1,10.84-1.757H78.187a4.867,4.867,0,1,0,0-9.735h-18.1a25.116,25.116,0,0,1-13.263-3.719,65.272,65.272,0,0,0-19.9-8.19c-12.322-2.733-21.189,6.724-23.1,8.98v16.235Zm0,0" transform="translate(0 -140.3)" fill="#fff"/>
    <path id="Path_210" data-name="Path 210" d="M238,120.708a22.454,22.454,0,0,1-9.873-2.724,1.924,1.924,0,0,1-.946-1.067c-.148-.415-3.566-10.247,1.866-17.518,3.948-5.286,11.371-7.666,22.076-7.07a1.91,1.91,0,0,1,1.8,1.815c.038.76.827,18.689-8.315,24.659A11.825,11.825,0,0,1,238,120.708Zm-7.433-5.795c5.025,2.357,9.042,2.588,11.954.686,5.421-3.541,6.594-14.052,6.622-19.522-8.388-.2-14.1,1.686-17.03,5.61C228.626,106.359,229.982,112.786,230.57,114.913Zm0,0" transform="translate(-162.665 -66.057)" fill="#fff"/>
    <path id="Path_211" data-name="Path 211" d="M116.419,29.587a17.9,17.9,0,0,1-10.72-3.228c-5.792-4.245-8.454-12.326-7.914-24.018A1.914,1.914,0,0,1,99.583.52c.827-.047,20.413-1.092,27,8.8,3.069,4.6,2.817,10.636-.745,17.929a1.91,1.91,0,0,1-1.058.956A26.416,26.416,0,0,1,116.419,29.587Zm7.7-3.177h.019ZM101.55,4.284c-.165,9.365,1.988,15.748,6.409,18.988,5.293,3.878,12.521,2.23,14.793,1.567,2.6-5.641,2.82-10.145.652-13.4C119.376,5.4,107.564,4.213,101.55,4.284Zm0,0" transform="translate(-70.336 0)" fill="#fff"/>
    <path id="Path_212" data-name="Path 212" d="M161.164,110.02c-.06,0-.12,0-.182-.009a1.913,1.913,0,0,1-1.731-2q.169-3.376.567-6.408c.8-13.537.385-45.063-19.547-53.784a1.913,1.913,0,1,1,1.534-3.5c11.746,5.139,19.135,17.933,21.364,37,.2,1.709.35,3.393.462,5.034,5.249-13.265,13.28-17.952,13.758-18.22a1.912,1.912,0,0,1,1.88,3.331c-.2.118-12.517,7.509-15.608,30.3-.235,3.9-.575,6.385-.606,6.612A1.912,1.912,0,0,1,161.164,110.02Zm0,0" transform="translate(-100.142 -31.446)" fill="#fff"/>
  </g>
</svg>
