<svg xmlns="http://www.w3.org/2000/svg" width="116.868" height="117.421" viewBox="0 0 116.868 117.421">
  <g id="healthcare-covid19-coronavirus-hand-hearth" transform="translate(-2.24 -2.199)">
    <path id="Path_201" data-name="Path 201" d="M50.526,16.854H44.635V10.964A1.964,1.964,0,0,0,42.672,9H34.818a1.964,1.964,0,0,0-1.964,1.964v5.891H26.964A1.964,1.964,0,0,0,25,18.818v7.854a1.964,1.964,0,0,0,1.964,1.964h5.891v5.891a1.964,1.964,0,0,0,1.964,1.964h7.854a1.964,1.964,0,0,0,1.964-1.964V28.635h5.891a1.964,1.964,0,0,0,1.964-1.964V18.818A1.964,1.964,0,0,0,50.526,16.854Zm-1.964,7.854H42.672a1.964,1.964,0,0,0-1.964,1.964v5.891H36.781V26.672a1.964,1.964,0,0,0-1.964-1.964H28.927V20.781h5.891a1.964,1.964,0,0,0,1.964-1.964V12.927h3.927v5.891a1.964,1.964,0,0,0,1.964,1.964h5.891Z" transform="translate(21.93 6.553)" fill="#fff"/>
    <path id="Path_202" data-name="Path 202" d="M85.485,22.708a8.994,8.994,0,0,0,.059-1.041A7.893,7.893,0,0,0,79.3,13.99a7.993,7.993,0,0,0-9.229,5.832L61.432,44.679a3.2,3.2,0,0,0-.373.177L43.7,55.027a17.7,17.7,0,0,0-8.738,15.237v18.5A1.964,1.964,0,0,0,33,90.724v15.708a1.964,1.964,0,0,0,1.964,1.964H62.453a1.964,1.964,0,0,0,1.964-1.964V90.724a1.964,1.964,0,0,0-1.964-1.964v-4.32a5.967,5.967,0,0,1,1.964-4.4l13.273-11.8a9.682,9.682,0,0,0,2.985-4.811L89.2,31.563a7.766,7.766,0,0,0,.275-2.042,7.891,7.891,0,0,0-3.986-6.813ZM73.821,20.98a4.149,4.149,0,0,1,4.673-3.142,3.927,3.927,0,0,1,3.122,3.829v.039a8.05,8.05,0,0,0-7.638,6.008L68.5,44.621a8.247,8.247,0,0,0-2.631-.746ZM60.489,104.469H36.927V92.687H60.489ZM85.406,30.542,76.865,62.43A5.853,5.853,0,0,1,75.1,65.3L61.8,77.1a9.927,9.927,0,0,0-3.279,7.344v4.32H38.891v-18.5A13.847,13.847,0,0,1,45.684,58.4L63.022,48.253a3.927,3.927,0,0,1,5.38,1.433,4.045,4.045,0,0,1,.393,2.985,3.927,3.927,0,0,1-1.846,2.376L55.7,61.546a1.964,1.964,0,0,0,1.964,3.4l11.251-6.5a7.752,7.752,0,0,0,3.672-4.771,7.868,7.868,0,0,0-.785-5.949l-.118-.177,6.067-18.712a4.149,4.149,0,0,1,4.673-3.142,3.927,3.927,0,0,1,3.122,3.829A3.382,3.382,0,0,1,85.406,30.542Z" transform="translate(29.638 11.224)" fill="#fff"/>
    <path id="Path_203" data-name="Path 203" d="M56.747,88.757v-18.5A17.7,17.7,0,0,0,48.01,55.024L30.652,44.833c-.118-.059-.255-.1-.373-.157L21.7,19.956a8.064,8.064,0,0,0-9.287-5.969,7.893,7.893,0,0,0-6.244,7.677A8.989,8.989,0,0,0,6.226,22.7,7.891,7.891,0,0,0,2.24,29.518,8.681,8.681,0,0,0,2.5,31.56l8.541,31.848a9.653,9.653,0,0,0,2.985,4.83l13.254,11.8a5.914,5.914,0,0,1,1.983,4.4v4.32a1.964,1.964,0,0,0-1.964,1.964v15.708a1.964,1.964,0,0,0,1.964,1.964H56.747a1.964,1.964,0,0,0,1.964-1.964V90.721A1.964,1.964,0,0,0,56.747,88.757ZM10.094,21.664a3.927,3.927,0,0,1,3.1-3.829,4.243,4.243,0,0,1,4.752,3.279l7.893,22.757a8.247,8.247,0,0,0-2.631.746L17.771,27.81A8.147,8.147,0,0,0,10.094,21.7Zm19.792,55.43-13.273-11.8a5.822,5.822,0,0,1-1.767-2.886L6.285,30.539a4.165,4.165,0,0,1-.118-1.021,3.927,3.927,0,0,1,3.1-3.829A4.21,4.21,0,0,1,14,28.929l6.028,18.614-.118.177a7.868,7.868,0,0,0-.785,5.949A7.752,7.752,0,0,0,22.8,58.44l11.251,6.5a1.964,1.964,0,0,0,1.964-3.4l-11.251-6.5a3.927,3.927,0,0,1-1.846-2.376,4.045,4.045,0,0,1,.393-2.985,3.927,3.927,0,0,1,5.36-1.453L46.026,58.4a13.847,13.847,0,0,1,6.794,11.86v18.5H33.185v-4.32A9.876,9.876,0,0,0,29.886,77.094Zm24.9,27.371H31.221V92.684H54.784Z" transform="translate(0 11.227)" fill="#fff"/>
    <path id="Path_204" data-name="Path 204" d="M76.224,7.958a19.623,19.623,0,0,0-27.777,0h0A19.632,19.632,0,1,0,20.67,35.713L47.06,62.1a1.964,1.964,0,0,0,2.776,0l26.39-26.39a19.647,19.647,0,0,0,0-27.754ZM48.446,57.938l-25-25A15.708,15.708,0,0,1,34.564,6.128a15.543,15.543,0,0,1,11.1,4.608l1.394,1.394a1.964,1.964,0,0,0,2.776,0l1.4-1.4a15.7,15.7,0,0,1,22.215,22.2Z" transform="translate(12.228 0)" fill="#fff"/>
  </g>
</svg>
