<svg xmlns="http://www.w3.org/2000/svg" width="133.8" height="120.758" viewBox="0 0 133.8 120.758">
  <g id="heart" transform="translate(0 -0.5)">
    <path id="Path_205" data-name="Path 205" d="M42.613,262.6a2.613,2.613,0,1,0,2.613,2.613A2.614,2.614,0,0,0,42.613,262.6Zm0,0" transform="translate(-29.547 -193.604)" fill="#fff"/>
    <path id="Path_206" data-name="Path 206" d="M120.111,242.113l-24.636,8.47a10.428,10.428,0,0,0-10.283-12.306H68.269a2.615,2.615,0,0,1-1.283-.336l-13.807-7.765a18.308,18.308,0,0,0-8.971-2.352H25.683a7.851,7.851,0,0,0-7.39-5.226H2.613A2.613,2.613,0,0,0,0,225.211v47.038a2.613,2.613,0,0,0,2.613,2.613h15.68a7.855,7.855,0,0,0,7.316-5.029,23.857,23.857,0,0,1,8.532,2.533l13.667,8.2a33.314,33.314,0,0,0,30.927,1.765l48.776-21.477a10.075,10.075,0,0,0-7.4-18.741Zm-99.2,24.922a2.616,2.616,0,0,1-2.613,2.6H5.227V227.824H18.293a2.616,2.616,0,0,1,2.613,2.613ZM125.525,256.02l-.083.034L76.585,277.566A28.086,28.086,0,0,1,50.5,276.084l-13.668-8.2a28.816,28.816,0,0,0-10.7-3.253v-31.58H44.208a13.074,13.074,0,0,1,6.408,1.679L64.423,242.5a7.852,7.852,0,0,0,3.846,1.009H85.192a5.227,5.227,0,1,1,0,10.453H58.626a2.613,2.613,0,1,0,0,5.226H85.192a10.434,10.434,0,0,0,4.9-1.224l31.775-10.923a4.851,4.851,0,1,1,3.659,8.984Zm0,0" transform="translate(0 -164.057)" fill="#fff"/>
    <path id="Path_207" data-name="Path 207" d="M194.261,63.887a2.616,2.616,0,0,0,3.424,0C219.006,45.408,232.2,36.056,232.2,21.524,232.2,10.027,224.056.5,212.622.5c-7.509,0-13.259,4.328-16.963,10.824C191.964,4.843,186.22.5,178.7.5c-8.754,0-16.072,5.673-18.644,14.451a2.613,2.613,0,1,0,5.015,1.47c1.9-6.5,7.253-10.694,13.629-10.694,7.455,0,12.685,6.62,14.441,12.784a2.613,2.613,0,0,0,5.037,0c.036-.128,3.666-12.784,14.445-12.784,8.179,0,14.347,6.79,14.347,15.8,0,11.625-11.364,20.006-31,36.935C184.007,48.185,174.5,40.954,169.1,33.88a2.614,2.614,0,1,0-4.155,3.172C171.037,45.025,181.315,52.665,194.261,63.887Zm0,0" transform="translate(-118.149 0)" fill="#fff"/>
    <path id="Path_208" data-name="Path 208" d="M161.613,88.6a2.613,2.613,0,1,0,2.613,2.613A2.614,2.614,0,0,0,161.613,88.6Zm0,0" transform="translate(-117.449 -65.075)" fill="#fff"/>
  </g>
</svg>
