<svg id="instagram" xmlns="http://www.w3.org/2000/svg" width="41.5" height="41.5" viewBox="0 0 41.5 41.5">
  <path id="Path_160" data-name="Path 160" d="M30.266,0H11.234A11.246,11.246,0,0,0,0,11.234V30.267A11.246,11.246,0,0,0,11.234,41.5H30.267A11.246,11.246,0,0,0,41.5,30.267V11.234A11.246,11.246,0,0,0,30.266,0Zm8.8,30.267a8.811,8.811,0,0,1-8.8,8.8H11.234a8.811,8.811,0,0,1-8.8-8.8V11.234a8.811,8.811,0,0,1,8.8-8.8H30.267a8.811,8.811,0,0,1,8.8,8.8Zm0,0"/>
  <path id="Path_161" data-name="Path 161" d="M130.917,116a14.913,14.913,0,1,0,14.913,14.913A14.93,14.93,0,0,0,130.917,116Zm0,26.629a11.716,11.716,0,1,1,11.716-11.716A11.729,11.729,0,0,1,130.917,142.633Zm0,0" transform="translate(-109.861 -109.861)"/>
  <path id="Path_162" data-name="Path 162" d="M360.167,66.285a2.191,2.191,0,1,0,2.191,2.191A2.193,2.193,0,0,0,360.167,66.285Zm0,2.792a.6.6,0,1,1,.6-.6A.6.6,0,0,1,360.167,69.077Zm0,0" transform="translate(-324.02 -62.775)"/>
</svg>
