<svg id="medicine" xmlns="http://www.w3.org/2000/svg" width="100.671" height="107.249" viewBox="0 0 100.671 107.249">
  <g id="Group_398" data-name="Group 398" transform="translate(20.946 26.392)">
    <g id="Group_397" data-name="Group 397">
      <path id="Path_214" data-name="Path 214" d="M117.791,125.994a2.095,2.095,0,1,0,2.095,2.095A2.1,2.1,0,0,0,117.791,125.994Z" transform="translate(-115.696 -125.994)" fill="#fff"/>
    </g>
  </g>
  <g id="Group_400" data-name="Group 400" transform="translate(23.041 57.183)">
    <g id="Group_399" data-name="Group 399">
      <path id="Path_215" data-name="Path 215" d="M144.547,281.364h-6.284v-6.284a2.095,2.095,0,1,0-4.189,0v6.284h-6.284a2.095,2.095,0,1,0,0,4.189h6.284v6.284a2.095,2.095,0,1,0,4.189,0v-6.284h6.284a2.095,2.095,0,1,0,0-4.189Z" transform="translate(-125.696 -272.986)" fill="#fff"/>
    </g>
  </g>
  <g id="Group_402" data-name="Group 402" transform="translate(0)">
    <g id="Group_401" data-name="Group 401" transform="translate(0)">
      <path id="Path_216" data-name="Path 216" d="M114.127,67.446a16.747,16.747,0,0,0-22.89-6.133l-8.508,4.912V48.036a10.548,10.548,0,0,0-2.095-6.284L70.161,27.788V21.842a6.294,6.294,0,0,0,4.189-5.924V6.284A6.291,6.291,0,0,0,68.066,0h-37.7a6.291,6.291,0,0,0-6.284,6.284v9.635a6.294,6.294,0,0,0,4.189,5.924v5.946L17.795,41.753A10.547,10.547,0,0,0,15.7,48.036V88.6A10.485,10.485,0,0,0,26.174,99.075H59.836A16.74,16.74,0,0,0,82.6,105l25.4-14.662A16.769,16.769,0,0,0,114.127,67.446ZM28.269,6.284a2.1,2.1,0,0,1,2.094-2.095h37.7a2.1,2.1,0,0,1,2.095,2.095v9.635a2.1,2.1,0,0,1-2.095,2.095h-37.7a2.1,2.1,0,0,1-2.094-2.095V6.284ZM21.147,44.265,32.039,29.743a2.094,2.094,0,0,0,.419-1.257V22.2H65.972v4.189H47.12a2.095,2.095,0,0,0,0,4.189h19.9L77.281,44.265a6.338,6.338,0,0,1,1.213,3.074H19.935A6.335,6.335,0,0,1,21.147,44.265Zm5.027,50.62A6.291,6.291,0,0,1,19.89,88.6V86.486H57.946a16.784,16.784,0,0,0,.1,8.4H26.174ZM59.589,82.318H19.89V51.527H78.539V68.644l-12.7,7.332A16.633,16.633,0,0,0,59.589,82.318ZM80.5,101.37A12.567,12.567,0,1,1,67.936,79.6l11.369-6.564L91.873,94.806Zm25.4-14.662-10.4,6L82.934,70.944l10.4-6A12.567,12.567,0,1,1,105.9,86.708Z" transform="translate(-15.701)" fill="#fff"/>
    </g>
  </g>
</svg>
