<svg id="right-chevron" xmlns="http://www.w3.org/2000/svg" width="196.006" height="225.343" viewBox="0 0 196.006 225.343">
  <path id="Path_120" data-name="Path 120" d="M131.375,1.509a12.325,12.325,0,0,0-11.543.12c-3.055,1.9-3.055,4.908,0,6.806l173.8,104.306-173.814,104.3c-3.242,1.88-3.332,4.98-.2,6.926a12.325,12.325,0,0,0,11.542.12c.068-.04.135-.079.2-.12L310.936,116.2c3.186-1.913,3.186-5.013,0-6.926Z" transform="translate(-117.325 -0.117)" fill="#1c1c1c"/>
  <path id="Path_121" data-name="Path 121" d="M125.627,225.328c-4.509.005-8.171-2.184-8.18-4.89a4.243,4.243,0,0,1,2.4-3.477L293.705,112.666,119.846,8.372c-3.193-1.915-3.193-5.021,0-6.936a12.349,12.349,0,0,1,11.561,0L311.03,109.2c3.188,1.913,3.188,5.013,0,6.926L131.407,223.887A11.449,11.449,0,0,1,125.627,225.328Z" transform="translate(-117.415 0)" fill="#1c1c1c"/>
</svg>
