<svg xmlns="http://www.w3.org/2000/svg" width="49.436" height="58.333" viewBox="0 0 49.436 58.333">
  <g id="shopping-bag" transform="translate(-15.359)">
    <g id="Group_13" data-name="Group 13" transform="translate(33.096)">
      <g id="Group_12" data-name="Group 12">
        <path id="Path_10" data-name="Path 10" d="M91.893,7.208A8.4,8.4,0,0,0,76.784,3.452a.988.988,0,1,0,1.6,1.166A6.428,6.428,0,0,1,89.935,7.487a.99.99,0,0,0,.978.849,1.058,1.058,0,0,0,.141-.01A.989.989,0,0,0,91.893,7.208Z" transform="translate(-76.593)" fill="#431c53"/>
      </g>
    </g>
    <g id="Group_15" data-name="Group 15" transform="translate(17.336 12.853)">
      <g id="Group_14" data-name="Group 14" transform="translate(0)">
        <path id="Path_11" data-name="Path 11" d="M67.524,49.8l-2.966-4.944a.987.987,0,0,0-.848-.48H60.868a.989.989,0,1,0,0,1.977h2.283l1.78,2.966H24.92l1.78-2.966h1.047a.989.989,0,1,0,0-1.977H26.14a.987.987,0,0,0-.848.48L22.326,49.8a.989.989,0,0,0,.848,1.5h43.5a.989.989,0,0,0,.848-1.5Z" transform="translate(-22.185 -44.372)" fill="#431c53"/>
      </g>
    </g>
    <g id="Group_17" data-name="Group 17" transform="translate(41.423 5.54)">
      <g id="Group_16" data-name="Group 16" transform="translate(0)">
        <path id="Path_12" data-name="Path 12" d="M121.667,22.746a.987.987,0,0,0-.615-.441l-13.478-3.152a.988.988,0,0,0-1.188.737l-1.016,4.345a.989.989,0,0,0,1.925.45l.791-3.382L119.639,24l-1.815,7.761a.988.988,0,0,0,.737,1.187,1,1,0,0,0,.227.026.987.987,0,0,0,.961-.763l2.041-8.724A.985.985,0,0,0,121.667,22.746Z" transform="translate(-105.343 -19.126)" fill="#431c53"/>
      </g>
    </g>
    <g id="Group_19" data-name="Group 19" transform="translate(21.191 3.005)">
      <g id="Group_18" data-name="Group 18">
        <path id="Path_13" data-name="Path 13" d="M54.9,18.866,54,11.246a.989.989,0,0,0-1.1-.866L36.367,12.335a.989.989,0,0,0-.866,1.1L37,26.141a.989.989,0,0,0,.981.873,1.08,1.08,0,0,0,.118-.007.989.989,0,0,0,.866-1.1L37.581,14.182,52.154,12.46l.784,6.638a.989.989,0,0,0,1.964-.231Z" transform="translate(-35.494 -10.374)" fill="#431c53"/>
      </g>
    </g>
    <g id="Group_21" data-name="Group 21" transform="translate(28.578 9.492)">
      <g id="Group_20" data-name="Group 20" transform="translate(0)">
        <path id="Path_14" data-name="Path 14" d="M80.837,41.687l-1.962-8.161a.988.988,0,0,0-1.193-.73l-15.927,3.83a.989.989,0,0,0-.73,1.193l.981,4.079a.989.989,0,1,0,1.922-.462l-.75-3.118,14-3.368,1.731,7.2a.989.989,0,0,0,1.923-.463Z" transform="translate(-60.997 -32.769)" fill="#431c53"/>
      </g>
    </g>
    <g id="Group_23" data-name="Group 23" transform="translate(15.359 17.797)">
      <g id="Group_22" data-name="Group 22" transform="translate(0)">
        <path id="Path_15" data-name="Path 15" d="M62.816,62.379a.989.989,0,0,0-.988-.938h-43.5a.989.989,0,0,0-.988.938L15.36,100.938a.988.988,0,0,0,.987,1.039H63.8a.988.988,0,0,0,.988-1.039ZM17.388,100l1.876-36.582H60.888L62.764,100Z" transform="translate(-15.359 -61.441)" fill="#431c53"/>
      </g>
    </g>
    <g id="Group_25" data-name="Group 25" transform="translate(44.525 21.751)">
      <g id="Group_24" data-name="Group 24">
        <path id="Path_16" data-name="Path 16" d="M119.018,75.093a2.966,2.966,0,1,0,2.966,2.966A2.969,2.969,0,0,0,119.018,75.093Zm0,3.955a.989.989,0,1,1,.989-.989A.99.99,0,0,1,119.018,79.048Z" transform="translate(-116.052 -75.093)" fill="#431c53"/>
      </g>
    </g>
    <g id="Group_27" data-name="Group 27" transform="translate(29.695 21.751)">
      <g id="Group_26" data-name="Group 26">
        <path id="Path_17" data-name="Path 17" d="M67.818,75.093a2.966,2.966,0,1,0,2.966,2.966A2.969,2.969,0,0,0,67.818,75.093Zm0,3.955a.989.989,0,1,1,.989-.989A.99.99,0,0,1,67.818,79.048Z" transform="translate(-64.852 -75.093)" fill="#431c53"/>
      </g>
    </g>
    <g id="Group_29" data-name="Group 29" transform="translate(31.672 24.717)">
      <g id="Group_28" data-name="Group 28">
        <path id="Path_18" data-name="Path 18" d="M87.5,85.333h-.076a.989.989,0,0,0-.989.989.977.977,0,0,0,.076.381v5.057a6.427,6.427,0,1,1-12.853,0V86.322a.989.989,0,1,0-1.977,0V91.76a8.4,8.4,0,0,0,16.808,0V86.322A.989.989,0,0,0,87.5,85.333Z" transform="translate(-71.679 -85.333)" fill="#431c53"/>
      </g>
    </g>
  </g>
</svg>
