<svg id="social" xmlns="http://www.w3.org/2000/svg" xmlns:xlink="http://www.w3.org/1999/xlink" width="149.667" height="149.667" viewBox="0 0 149.667 149.667">
  <defs>
    <linearGradient id="linear-gradient" x1="0.5" x2="0.5" y2="1" gradientUnits="objectBoundingBox">
      <stop offset="0" stop-color="#431c53"/>
      <stop offset="1" stop-color="#431c53"/>
    </linearGradient>
  </defs>
  <g id="Group_96" data-name="Group 96" transform="translate(0 99.73)">
    <g id="Group_95" data-name="Group 95" transform="translate(0)">
      <path id="Path_106" data-name="Path 106" d="M23.509,341.407a12.472,12.472,0,1,0-17.63-.547q.265.282.546.546A12.25,12.25,0,0,0,0,352.14v15.149a2.493,2.493,0,0,0,2.492,2.494H27.439a2.493,2.493,0,0,0,2.494-2.492V352.14A12.249,12.249,0,0,0,23.509,341.407Zm-8.542-16.524a7.483,7.483,0,1,1-7.483,7.483A7.483,7.483,0,0,1,14.967,324.883Zm9.978,39.911H4.989V352.14a7.308,7.308,0,0,1,7.3-7.3h5.354a7.308,7.308,0,0,1,7.3,7.3Z" transform="translate(0 -319.847)" fill="url(#linear-gradient)"/>
    </g>
  </g>
  <g id="Group_98" data-name="Group 98" transform="translate(39.911 99.73)">
    <g id="Group_97" data-name="Group 97">
      <path id="Path_107" data-name="Path 107" d="M151.509,341.408a12.472,12.472,0,1,0-17.63-.546q.265.281.546.546A12.248,12.248,0,0,0,128,352.14v15.149a2.493,2.493,0,0,0,2.492,2.494H155.44a2.493,2.493,0,0,0,2.494-2.492V352.14A12.25,12.25,0,0,0,151.509,341.408Zm-8.542-16.524a7.483,7.483,0,1,1-7.483,7.483A7.483,7.483,0,0,1,142.967,324.884Zm9.978,39.911H132.99V352.14a7.308,7.308,0,0,1,7.3-7.3h5.354a7.308,7.308,0,0,1,7.3,7.3Z" transform="translate(-128.001 -319.848)" fill="url(#linear-gradient)"/>
    </g>
  </g>
  <g id="Group_100" data-name="Group 100" transform="translate(79.823 99.73)">
    <g id="Group_99" data-name="Group 99">
      <path id="Path_108" data-name="Path 108" d="M279.509,341.408a12.472,12.472,0,1,0-17.63-.546q.265.281.546.546A12.248,12.248,0,0,0,256,352.14v15.149a2.493,2.493,0,0,0,2.492,2.494H283.44a2.493,2.493,0,0,0,2.494-2.492V352.14A12.25,12.25,0,0,0,279.509,341.408Zm-8.542-16.524a7.483,7.483,0,1,1-7.483,7.483A7.483,7.483,0,0,1,270.967,324.884Zm9.978,39.911H260.99V352.14a7.308,7.308,0,0,1,7.3-7.3h5.354a7.308,7.308,0,0,1,7.3,7.3Z" transform="translate(-256.001 -319.848)" fill="url(#linear-gradient)"/>
    </g>
  </g>
  <g id="Group_102" data-name="Group 102" transform="translate(119.734 99.73)">
    <g id="Group_101" data-name="Group 101">
      <path id="Path_109" data-name="Path 109" d="M407.509,341.408a12.472,12.472,0,1,0-17.63-.546q.265.281.546.546A12.248,12.248,0,0,0,384,352.14v15.149a2.493,2.493,0,0,0,2.491,2.494H411.44a2.493,2.493,0,0,0,2.495-2.492V352.14A12.25,12.25,0,0,0,407.509,341.408Zm-8.542-16.524a7.483,7.483,0,1,1-7.484,7.483A7.483,7.483,0,0,1,398.967,324.884Zm9.978,39.911H388.989V352.14a7.308,7.308,0,0,1,7.3-7.3h5.354a7.307,7.307,0,0,1,7.3,7.3Z" transform="translate(-384.001 -319.848)" fill="url(#linear-gradient)"/>
    </g>
  </g>
  <g id="Group_104" data-name="Group 104" transform="translate(52.383 12.472)">
    <g id="Group_103" data-name="Group 103">
      <path id="Path_110" data-name="Path 110" d="M205.419,40H170.494A2.493,2.493,0,0,0,168,42.492v44.9a2.493,2.493,0,0,0,2.492,2.494h34.925a2.493,2.493,0,0,0,2.494-2.492v-44.9A2.493,2.493,0,0,0,205.419,40Zm-2.5,44.9H172.989V44.989h29.933Z" transform="translate(-168 -40)" fill="url(#linear-gradient)"/>
    </g>
  </g>
  <g id="Group_106" data-name="Group 106" transform="translate(99.778 9.988)">
    <g id="Group_105" data-name="Group 105">
      <path id="Path_111" data-name="Path 111" d="M352.229,35.222q-.159-.167-.325-.326a10.43,10.43,0,0,0-14.36,0l-.083.08-.083-.08a10.431,10.431,0,0,0-14.36,0,9.743,9.743,0,0,0-.325,13.774q.159.167.325.326l12.711,12.26a2.5,2.5,0,0,0,3.464,0L351.9,49A9.742,9.742,0,0,0,352.229,35.222Zm-3.59,9.984q-.1.1-.2.2L337.46,55.994,326.482,45.405a4.753,4.753,0,0,1-.2-6.719q.1-.1.2-.2h0a5.4,5.4,0,0,1,7.432,0l1.815,1.751a2.5,2.5,0,0,0,3.464,0l1.815-1.751a5.4,5.4,0,0,1,7.432,0A4.753,4.753,0,0,1,348.639,45.206Z" transform="translate(-319.999 -32.031)" fill="url(#linear-gradient)"/>
    </g>
  </g>
  <g id="Group_108" data-name="Group 108" transform="translate(62.361 25)">
    <g id="Group_107" data-name="Group 107">
      <path id="Path_112" data-name="Path 112" d="M219.457,91.1l-7.483-9.978a2.582,2.582,0,0,0-3.99,0L200.5,91.1a2.492,2.492,0,0,0,0,2.991l7.483,9.978a2.492,2.492,0,0,0,3.99,0l7.483-9.978A2.492,2.492,0,0,0,219.457,91.1Zm-9.478,7.315-4.365-5.82,4.365-5.82,4.365,5.82Z" transform="translate(-200.001 -80.179)" fill="url(#linear-gradient)"/>
    </g>
  </g>
  <g id="Group_110" data-name="Group 110" transform="translate(97.283 44.9)">
    <g id="Group_109" data-name="Group 109">
      <path id="Path_113" data-name="Path 113" d="M331.955,144a19.956,19.956,0,1,0,19.956,19.956A19.956,19.956,0,0,0,331.955,144Zm0,34.922a14.967,14.967,0,1,1,14.967-14.967A14.966,14.966,0,0,1,331.955,178.922Z" transform="translate(-312 -144)" fill="url(#linear-gradient)"/>
    </g>
  </g>
  <g id="Group_112" data-name="Group 112" transform="translate(109.756 69.844)">
    <g id="Group_111" data-name="Group 111">
      <path id="Path_114" data-name="Path 114" d="M361.978,224a2.494,2.494,0,1,1-4.989,0H352a7.483,7.483,0,1,0,14.967,0Z" transform="translate(-352 -224)" fill="url(#linear-gradient)"/>
    </g>
  </g>
  <g id="Group_114" data-name="Group 114" transform="translate(119.733 57.372)">
    <g id="Group_113" data-name="Group 113">
      <path id="Path_115" data-name="Path 115" d="M387.741,184a3.742,3.742,0,1,0,3.742,3.742A3.742,3.742,0,0,0,387.741,184Zm0,4.989a1.247,1.247,0,1,1,1.247-1.247A1.248,1.248,0,0,1,387.741,188.989Z" transform="translate(-384 -184)" fill="url(#linear-gradient)"/>
    </g>
  </g>
  <g id="Group_116" data-name="Group 116" transform="translate(107.261 57.372)">
    <g id="Group_115" data-name="Group 115">
      <path id="Path_116" data-name="Path 116" d="M347.742,184a3.742,3.742,0,1,0,3.742,3.742A3.742,3.742,0,0,0,347.742,184Zm0,4.989a1.247,1.247,0,1,1,1.247-1.247A1.25,1.25,0,0,1,347.742,188.989Z" transform="translate(-344 -184)" fill="url(#linear-gradient)"/>
    </g>
  </g>
  <g id="Group_118" data-name="Group 118" transform="translate(12.472 49.889)">
    <g id="Group_117" data-name="Group 117">
      <path id="Path_117" data-name="Path 117" d="M72.431,160H42.494A2.493,2.493,0,0,0,40,162.492v17.464a2.493,2.493,0,0,0,2.492,2.494h9.077l14.272,11.895a2.5,2.5,0,0,0,4.044-2.407l-1.9-9.488h4.441a2.493,2.493,0,0,0,2.494-2.492V162.494A2.493,2.493,0,0,0,72.431,160Zm-2.5,17.461H64.944a2.494,2.494,0,0,0-2.445,2.984l1.108,5.542-9.537-7.948a2.5,2.5,0,0,0-1.6-.577H44.989V164.989H69.933Z" transform="translate(-40 -160)" fill="url(#linear-gradient)"/>
    </g>
  </g>
  <g id="Group_120" data-name="Group 120" transform="translate(0)">
    <g id="Group_119" data-name="Group 119">
      <path id="Path_118" data-name="Path 118" d="M120.74,0H28.927A28.96,28.96,0,0,0,0,28.927V65.861A28.96,28.96,0,0,0,28.927,94.789h91.812a28.959,28.959,0,0,0,28.927-28.927V28.927A28.959,28.959,0,0,0,120.74,0Zm23.938,65.862A23.964,23.964,0,0,1,120.74,89.8H28.927A23.964,23.964,0,0,1,4.989,65.862V28.927A23.964,23.964,0,0,1,28.927,4.989h91.812a23.964,23.964,0,0,1,23.938,23.938V65.862Z" fill="url(#linear-gradient)"/>
    </g>
  </g>
  <g id="Group_122" data-name="Group 122" transform="translate(12.492 9.978)">
    <g id="Group_121" data-name="Group 121">
      <path id="Path_119" data-name="Path 119" d="M60.233,32.213A17.448,17.448,0,0,0,41.054,43.664l-.014.027-.011.042a17.259,17.259,0,0,0-.706,2.71c-.017.1-.029.193-.044.29A17.45,17.45,0,1,0,60.233,32.213ZM54.8,61.62a12.276,12.276,0,0,1-9.549-14.337A12.466,12.466,0,0,1,55.01,59.439,12.123,12.123,0,0,1,54.8,61.62Zm5,.081A16.964,16.964,0,0,0,60,59.439a17.451,17.451,0,0,0-12.9-16.83,12.492,12.492,0,0,1,7.92-5.369A17.532,17.532,0,0,0,69.064,54.09,12.484,12.484,0,0,1,59.8,61.7Zm.221-24.455a12.48,12.48,0,0,1,9.923,11.932A12.51,12.51,0,0,1,60.025,37.246Z" transform="translate(-40.063 -32)" fill="url(#linear-gradient)"/>
    </g>
  </g>
</svg>
