<svg xmlns="http://www.w3.org/2000/svg" width="51.5" height="41.844" viewBox="0 0 51.5 41.844">
  <g id="twitter" transform="translate(0 -48)">
    <g id="Group_261" data-name="Group 261" transform="translate(0 48)">
      <path id="Path_154" data-name="Path 154" d="M51.5,52.954a22.013,22.013,0,0,1-6.083,1.667,10.5,10.5,0,0,0,4.645-5.836,21.1,21.1,0,0,1-6.695,2.556A10.557,10.557,0,0,0,25.1,58.561a10.871,10.871,0,0,0,.245,2.408A29.884,29.884,0,0,1,3.586,49.925,10.561,10.561,0,0,0,6.83,64.036a10.427,10.427,0,0,1-4.77-1.3v.116a10.607,10.607,0,0,0,8.459,10.374,10.538,10.538,0,0,1-2.768.348,9.335,9.335,0,0,1-2-.18,10.658,10.658,0,0,0,9.865,7.355,21.214,21.214,0,0,1-13.091,4.5A19.776,19.776,0,0,1,0,85.106a29.723,29.723,0,0,0,16.2,4.738c19.428,0,30.05-16.094,30.05-30.044,0-.467-.016-.917-.039-1.365A21.063,21.063,0,0,0,51.5,52.954Z" transform="translate(0 -48)"/>
    </g>
  </g>
</svg>
