<svg xmlns="http://www.w3.org/2000/svg" width="46.5" height="33.604" viewBox="0 0 46.5 33.604">
  <g id="youtube" transform="translate(0 -71.001)">
    <g id="Group_263" data-name="Group 263" transform="translate(22.687 71.001)">
      <g id="Group_262" data-name="Group 262">
        <path id="Path_155" data-name="Path 155" d="M248.566,71h-.055a.733.733,0,0,0-.733.731v0a.733.733,0,0,0,.731.733h.055a.733.733,0,0,0,.733-.731v0A.733.733,0,0,0,248.566,71Z" transform="translate(-247.778 -71.001)"/>
      </g>
    </g>
    <g id="Group_265" data-name="Group 265" transform="translate(0 71.027)">
      <g id="Group_264" data-name="Group 264">
        <path id="Path_156" data-name="Path 156" d="M45.536,76.966a6.553,6.553,0,0,0-4.59-4.661c-2.3-.628-8.73-.859-13.714-.942a.908.908,0,0,0-.03,1.817c6.9.115,11.61.427,13.267.879a4.732,4.732,0,0,1,3.31,3.37c.893,3.387.9,10.628.9,10.7s-.011,7.314-.9,10.7a4.732,4.732,0,0,1-3.311,3.37c-3.328.907-17.08.917-17.219.917s-13.891-.011-17.22-.917a4.732,4.732,0,0,1-3.31-3.37c-.893-3.387-.9-10.628-.9-10.7s.011-7.314.9-10.7a4.732,4.732,0,0,1,3.311-3.37c1.694-.461,6.544-.775,13.659-.885a.908.908,0,0,0-.028-1.816c-5.138.079-11.756.308-14.108.948a6.552,6.552,0,0,0-4.591,4.66C.011,80.58,0,87.822,0,88.129s.011,7.549.964,11.163a6.553,6.553,0,0,0,4.59,4.661c3.561.97,17.121.981,17.7.981s14.135-.011,17.7-.981a6.552,6.552,0,0,0,4.591-4.66c.953-3.614.964-10.857.964-11.164S46.489,80.58,45.536,76.966Z" transform="translate(0 -71.357)"/>
      </g>
    </g>
    <g id="Group_267" data-name="Group 267" transform="translate(3.517 86.449)">
      <g id="Group_266" data-name="Group 266">
        <path id="Path_157" data-name="Path 157" d="M48.733,229.521a.733.733,0,0,0-.733.733v5.972a.733.733,0,1,0,1.465,0v-5.972A.733.733,0,0,0,48.733,229.521Z" transform="translate(-48 -229.521)"/>
      </g>
    </g>
    <g id="Group_269" data-name="Group 269" transform="translate(3.517 81.38)">
      <g id="Group_268" data-name="Group 268">
        <path id="Path_158" data-name="Path 158" d="M48.733,184.021a.733.733,0,0,0-.733.733v.009a.733.733,0,1,0,1.465,0v-.009A.733.733,0,0,0,48.733,184.021Z" transform="translate(-48 -184.021)"/>
      </g>
    </g>
    <g id="Group_271" data-name="Group 271" transform="translate(19.35 81.953)">
      <g id="Group_270" data-name="Group 270">
        <path id="Path_159" data-name="Path 159" d="M208.271,180.9l-9.086-5.276a.733.733,0,0,0-1.1.634V186.8a.733.733,0,0,0,1.1.634l9.086-5.276a.733.733,0,0,0,0-1.267Zm-8.721,4.637v-8.006l6.894,4Z" transform="translate(-198.084 -175.52)"/>
      </g>
    </g>
  </g>
</svg>
