<svg xmlns="http://www.w3.org/2000/svg" width="52.387" height="56" viewBox="0 0 52.387 56">
  <path id="community" d="M48.363,14.351a7.226,7.226,0,1,0-7.639-.007,10.871,10.871,0,0,0-5.555,4.718,10.8,10.8,0,0,0-2.161-1.1,7.225,7.225,0,1,0-7.629,0,10.753,10.753,0,0,0-2.161,1.1,10.869,10.869,0,0,0-5.554-4.718,7.227,7.227,0,1,0-7.64.006A10.846,10.846,0,0,0,3,24.484V31.71a3.617,3.617,0,0,0,3.613,3.613h.9V49.774a3.6,3.6,0,0,0,6.323,2.365,3.6,3.6,0,0,0,6.323-2.365V38.433a3.576,3.576,0,0,0,1.806.5h.9V53.387a3.6,3.6,0,0,0,6.323,2.365,3.6,3.6,0,0,0,6.323-2.365V38.935h.9a3.576,3.576,0,0,0,1.806-.5V49.774a3.6,3.6,0,0,0,6.323,2.365,3.6,3.6,0,0,0,6.323-2.365V35.323h.9a3.617,3.617,0,0,0,3.613-3.613V24.484A10.846,10.846,0,0,0,48.363,14.351ZM42.6,15.688a8.461,8.461,0,0,1,3.906-.016l-1.959,2.742Zm.767,4.182-1.181,1.181L40.45,16.459c.117-.06.229-.131.349-.186Zm2.36,0,2.567-3.594c.12.055.238.112.356.172l-1.743,4.6Zm-6.6-11.644a5.419,5.419,0,1,1,5.419,5.419A5.425,5.425,0,0,1,39.129,8.226ZM30.077,26.047l-.883,1.324-.883-1.324.513-6.965c.124,0,.246-.018.37-.018s.247.014.37.019Zm-6.3-14.209a5.419,5.419,0,1,1,5.419,5.419,5.425,5.425,0,0,1-5.419-5.419Zm-9.935,3.613a8.969,8.969,0,0,1,1.647.17c-.284.958-.925,1.637-1.647,1.637s-1.368-.684-1.65-1.648A9.029,9.029,0,0,1,13.839,15.452ZM8.419,8.226a5.419,5.419,0,1,1,5.419,5.419A5.425,5.425,0,0,1,8.419,8.226Zm9.935,41.548a1.806,1.806,0,0,1-3.613,0V30.806H12.935V49.774a1.806,1.806,0,0,1-3.613,0v-28.9H7.516V33.516h-.9A1.808,1.808,0,0,1,4.806,31.71V24.484a9.042,9.042,0,0,1,5.654-8.37,3.725,3.725,0,0,0,3.378,2.951,3.722,3.722,0,0,0,3.374-2.935,9.024,9.024,0,0,1,4.562,4.088,10.8,10.8,0,0,0-3.42,7.88V49.774ZM36.419,37.129h-.9V24.484H33.71v28.9a1.806,1.806,0,1,1-3.613,0V34.419H28.29V53.387a1.806,1.806,0,0,1-3.613,0v-28.9H22.871V37.129h-.9a1.808,1.808,0,0,1-1.806-1.806V28.1a9.04,9.04,0,0,1,6.832-8.75l-.529,7.186,2.73,4.1,2.73-4.1-.529-7.186a9.04,9.04,0,0,1,6.832,8.75v7.226A1.808,1.808,0,0,1,36.419,37.129ZM53.581,31.71a1.808,1.808,0,0,1-1.806,1.806h-.9V21.774H49.065v28a1.806,1.806,0,0,1-3.613,0V30.806H43.645V49.774a1.806,1.806,0,0,1-3.613,0V28.1a10.8,10.8,0,0,0-3.42-7.88A8.985,8.985,0,0,1,38.9,17.463l2.591,6.842,3.059-3.059,3.059,3.059L50.2,17.451a9.016,9.016,0,0,1,3.378,7.033Z" transform="translate(-3 -1)" fill="#431c53"/>
</svg>
