<svg xmlns="http://www.w3.org/2000/svg" width="52.567" height="45.995" viewBox="0 0 52.567 45.995">
  <g id="credit-card" transform="translate(0 -32.004)">
    <g id="Group_209" data-name="Group 209" transform="translate(0 41.859)">
      <g id="Group_208" data-name="Group 208">
        <path id="Path_127" data-name="Path 127" d="M50.924,147.709a1.643,1.643,0,0,0-1.643,1.643v11.5h-46V141.138h18.07a1.643,1.643,0,1,0,0-3.285H3.285v-6.571h18.07a1.643,1.643,0,0,0,0-3.285H3.285A3.287,3.287,0,0,0,0,131.281V160.85a3.287,3.287,0,0,0,3.285,3.285h46a3.287,3.287,0,0,0,3.285-3.285v-11.5A1.643,1.643,0,0,0,50.924,147.709Z" transform="translate(0 -127.996)" fill="#491e3c"/>
      </g>
    </g>
    <g id="Group_211" data-name="Group 211" transform="translate(6.571 61.572)">
      <g id="Group_210" data-name="Group 210">
        <path id="Path_128" data-name="Path 128" d="M72.214,320H65.643a1.643,1.643,0,1,0,0,3.285h6.571a1.643,1.643,0,1,0,0-3.285Z" transform="translate(-64 -319.996)" fill="#491e3c"/>
      </g>
    </g>
    <g id="Group_213" data-name="Group 213" transform="translate(26.284 32.004)">
      <g id="Group_212" data-name="Group 212">
        <path id="Path_129" data-name="Path 129" d="M281.288,37.063l-11.5-4.928a1.677,1.677,0,0,0-1.3,0l-11.5,4.928A1.647,1.647,0,0,0,256,38.574v6.571c0,9.038,3.341,14.321,12.324,19.5a1.651,1.651,0,0,0,1.636,0c8.982-5.161,12.324-10.444,12.324-19.5V38.574A1.644,1.644,0,0,0,281.288,37.063ZM279,45.145c0,7.586-2.51,11.762-9.856,16.164-7.346-4.412-9.856-8.588-9.856-16.164V39.658l9.856-4.225L279,39.658Z" transform="translate(-256 -32.004)" fill="#491e3c"/>
      </g>
    </g>
    <g id="Group_215" data-name="Group 215" transform="translate(32.856 41.862)">
      <g id="Group_214" data-name="Group 214">
        <path id="Path_130" data-name="Path 130" d="M332.537,128.372a1.654,1.654,0,0,0-2.31.256l-5.165,6.459-2.044-3.055a1.642,1.642,0,0,0-2.733,1.82l3.285,4.928a1.656,1.656,0,0,0,1.3.733h.069a1.643,1.643,0,0,0,1.285-.618l6.571-8.214A1.644,1.644,0,0,0,332.537,128.372Z" transform="translate(-320.011 -128.016)" fill="#491e3c"/>
      </g>
    </g>
  </g>
</svg>
