<svg xmlns="http://www.w3.org/2000/svg" width="54.63" height="46.417" viewBox="0 0 54.63 46.417">
  <g id="free-delivery" transform="translate(0 -38.486)">
    <g id="Group_217" data-name="Group 217" transform="translate(0 38.486)">
      <g id="Group_216" data-name="Group 216">
        <path id="Path_131" data-name="Path 131" d="M50.806,65l-1.415-5.659a.856.856,0,0,0,.677-.836v-.912A3.6,3.6,0,0,0,46.475,54H40.032V52.114a1.77,1.77,0,0,0-1.768-1.768H26.282l7.281-2.912a.855.855,0,1,0-.635-1.588L26.966,48.23a20.105,20.105,0,0,0,4.3-3.346,3.984,3.984,0,0,0-6.335-4.832c-.973,1.276-2.258,4.863-3.089,7.39-.831-2.527-2.115-6.113-3.089-7.39a3.984,3.984,0,0,0-6.335,4.832,20.1,20.1,0,0,0,4.3,3.346l-5.962-2.385a.855.855,0,1,0-.635,1.588L17.4,50.346H5.417A1.77,1.77,0,0,0,3.65,52.114V67.625a.855.855,0,1,0,1.711,0V52.114a.057.057,0,0,1,.057-.057H38.264a.057.057,0,0,1,.057.057V67.625a.855.855,0,1,0,1.711,0v-.97h10.1a2.8,2.8,0,0,1,2.658,1.939h-2.66a.855.855,0,0,0-.855.855v1.825a2.683,2.683,0,0,0,2.68,2.68h.969v3.764H50.682a5.416,5.416,0,0,0-10.239,0h-.412V71.274a.855.855,0,0,0-1.711,0v6.444H20.573a5.416,5.416,0,0,0-10.239,0H5.417a.057.057,0,0,1-.057-.057V75.779H9.067a.855.855,0,0,0,0-1.711H.855a.855.855,0,0,0,0,1.711H3.65v1.882a1.77,1.77,0,0,0,1.768,1.768h4.62c0,.019,0,.038,0,.057a5.417,5.417,0,1,0,10.835,0c0-.019,0-.038,0-.057H40.147c0,.019,0,.038,0,.057a5.417,5.417,0,1,0,10.835,0c0-.019,0-.038,0-.057h2.8a.855.855,0,0,0,.855-.855V69.45A4.512,4.512,0,0,0,50.806,65ZM18.448,47.3c-3.374-2.1-4.375-3.061-4.671-3.45a2.273,2.273,0,0,1,3.615-2.756c.827,1.085,2.123,4.736,2.979,7.368C19.793,48.118,19.129,47.72,18.448,47.3Zm4.863,1.161c.856-2.631,2.151-6.283,2.979-7.368A2.273,2.273,0,0,1,29.9,43.847c-.3.388-1.3,1.353-4.671,3.45C24.552,47.72,23.888,48.118,23.311,48.458Zm16.721,7.248h6.444a1.884,1.884,0,0,1,1.882,1.882v.057H40.032Zm0,9.238V59.356h7.6l1.4,5.588ZM15.454,83.193a3.707,3.707,0,1,1,3.707-3.707A3.711,3.711,0,0,1,15.454,83.193Zm30.109,0a3.707,3.707,0,1,1,3.707-3.707A3.711,3.711,0,0,1,45.563,83.193Zm7.356-10.949H51.95a.971.971,0,0,1-.969-.969V70.3h1.939v1.939Z" transform="translate(0 -38.486)" fill="#491e3c"/>
      </g>
    </g>
    <g id="Group_219" data-name="Group 219" transform="translate(13.686 77.718)">
      <g id="Group_218" data-name="Group 218">
        <path id="Path_132" data-name="Path 132" d="M130.035,406.172a1.768,1.768,0,1,0,1.768,1.768A1.77,1.77,0,0,0,130.035,406.172Z" transform="translate(-128.267 -406.172)" fill="#491e3c"/>
      </g>
    </g>
    <g id="Group_221" data-name="Group 221" transform="translate(43.795 77.718)">
      <g id="Group_220" data-name="Group 220">
        <path id="Path_133" data-name="Path 133" d="M412.223,406.172a1.768,1.768,0,1,0,1.768,1.768A1.77,1.77,0,0,0,412.223,406.172Z" transform="translate(-410.455 -406.172)" fill="#491e3c"/>
      </g>
    </g>
    <g id="Group_223" data-name="Group 223" transform="translate(21.898 74.068)">
      <g id="Group_222" data-name="Group 222">
        <path id="Path_134" data-name="Path 134" d="M218.856,371.967H206.082a.855.855,0,1,0,0,1.711h12.774a.855.855,0,1,0,0-1.711Z" transform="translate(-205.227 -371.967)" fill="#491e3c"/>
      </g>
    </g>
    <g id="Group_225" data-name="Group 225" transform="translate(1.825 70.419)">
      <g id="Group_224" data-name="Group 224">
        <path id="Path_135" data-name="Path 135" d="M28.906,337.763H17.957a.855.855,0,0,0,0,1.711H28.906a.855.855,0,0,0,0-1.711Z" transform="translate(-17.102 -337.763)" fill="#491e3c"/>
      </g>
    </g>
    <g id="Group_227" data-name="Group 227" transform="translate(9.124 57.645)">
      <g id="Group_226" data-name="Group 226">
        <path id="Path_136" data-name="Path 136" d="M90.016,218.046h-3.65a.855.855,0,0,0-.855.855v7.3a.855.855,0,1,0,1.711,0v-2.794H89.1a.855.855,0,0,0,0-1.711H87.222v-1.939h2.794a.855.855,0,1,0,0-1.711Z" transform="translate(-85.511 -218.046)" fill="#491e3c"/>
      </g>
    </g>
    <g id="Group_229" data-name="Group 229" transform="translate(15.511 57.645)">
      <g id="Group_228" data-name="Group 228" transform="translate(0 0)">
        <path id="Path_137" data-name="Path 137" d="M150.219,223.807a3.135,3.135,0,0,0-1.713-5.761h-2.281a.855.855,0,0,0-.855.855v7.3a.855.855,0,1,0,1.711,0v-1.882H148.5l1.571,2.356a.855.855,0,1,0,1.423-.949Zm-1.713-1.2H147.08v-2.851h1.426a1.426,1.426,0,1,1,0,2.851Z" transform="translate(-145.369 -218.046)" fill="#491e3c"/>
      </g>
    </g>
    <g id="Group_231" data-name="Group 231" transform="translate(22.81 57.645)">
      <g id="Group_230" data-name="Group 230">
        <path id="Path_138" data-name="Path 138" d="M218.283,225.345h-2.794V223.4l.057,0h1.825a.855.855,0,1,0,0-1.711h-1.825l-.057,0v-1.942h2.794a.855.855,0,0,0,0-1.711h-3.65a.855.855,0,0,0-.855.855v7.3a.855.855,0,0,0,.855.855h3.65a.855.855,0,1,0,0-1.711Z" transform="translate(-213.778 -218.046)" fill="#491e3c"/>
      </g>
    </g>
    <g id="Group_233" data-name="Group 233" transform="translate(29.197 57.645)">
      <g id="Group_232" data-name="Group 232">
        <path id="Path_139" data-name="Path 139" d="M278.141,225.345h-2.794v-1.939h.969a.855.855,0,0,0,0-1.711h-.969v-1.939h2.794a.855.855,0,1,0,0-1.711h-3.65a.855.855,0,0,0-.855.855v7.3a.855.855,0,0,0,.855.855h3.65a.855.855,0,1,0,0-1.711Z" transform="translate(-273.636 -218.046)" fill="#491e3c"/>
      </g>
    </g>
  </g>
</svg>
