<svg xmlns="http://www.w3.org/2000/svg" width="55.737" height="56" viewBox="0 0 55.737 56">
  <g id="healthcare-covid19-coronavirus-hand-hearth" transform="translate(-2.24 -2.199)">
    <path id="Path_201" data-name="Path 201" d="M37.174,12.746H34.364V9.936A.936.936,0,0,0,33.428,9H29.682a.936.936,0,0,0-.936.936v2.809H25.936a.936.936,0,0,0-.936.936v3.746a.936.936,0,0,0,.936.936h2.809v2.809a.936.936,0,0,0,.936.936h3.746a.936.936,0,0,0,.936-.936V18.364h2.809a.936.936,0,0,0,.936-.936V13.682A.936.936,0,0,0,37.174,12.746Zm-.936,3.746H33.428a.936.936,0,0,0-.936.936v2.809H30.619V17.428a.936.936,0,0,0-.936-.936H26.873V14.619h2.809a.936.936,0,0,0,.936-.936V10.873h1.873v2.809a.936.936,0,0,0,.936.936h2.809Z" transform="translate(-1.447 -0.432)" fill="#fff"/>
    <path id="Path_202" data-name="Path 202" d="M58.031,18.073a4.288,4.288,0,0,0,.028-.5,3.764,3.764,0,0,0-2.978-3.661,3.812,3.812,0,0,0-4.4,2.781L46.56,28.552a1.528,1.528,0,0,0-.178.084L38.1,33.487a8.444,8.444,0,0,0-4.167,7.267v8.821a.936.936,0,0,0-.936.936V58a.936.936,0,0,0,.936.936h13.11A.936.936,0,0,0,47.983,58V50.511a.936.936,0,0,0-.936-.936v-2.06a2.846,2.846,0,0,1,.936-2.1l6.33-5.628a4.618,4.618,0,0,0,1.423-2.294L59.8,22.3a3.7,3.7,0,0,0,.131-.974,3.764,3.764,0,0,0-1.9-3.249Zm-5.562-.824a1.979,1.979,0,0,1,2.229-1.5,1.873,1.873,0,0,1,1.489,1.826V17.6a3.839,3.839,0,0,0-3.643,2.865l-2.613,8.063a3.933,3.933,0,0,0-1.255-.356ZM46.11,57.066H34.873V51.448H46.11ZM57.993,21.81,53.92,37.017a2.791,2.791,0,0,1-.843,1.367l-6.34,5.628a4.735,4.735,0,0,0-1.564,3.5v2.06H35.809V40.754a6.6,6.6,0,0,1,3.24-5.656l8.269-4.841a1.873,1.873,0,0,1,2.566.684,1.929,1.929,0,0,1,.187,1.423,1.873,1.873,0,0,1-.88,1.133l-5.366,3.1a.936.936,0,0,0,.936,1.62l5.366-3.1a3.7,3.7,0,0,0,1.751-2.276A3.752,3.752,0,0,0,51.5,30l-.056-.084,2.894-8.924a1.979,1.979,0,0,1,2.229-1.5,1.873,1.873,0,0,1,1.489,1.826A1.613,1.613,0,0,1,57.993,21.81Z" transform="translate(-1.955 -0.74)" fill="#fff"/>
    <path id="Path_203" data-name="Path 203" d="M28.235,49.575V40.754a8.444,8.444,0,0,0-4.167-7.267l-8.278-4.86c-.056-.028-.122-.047-.178-.075L11.52,16.762a3.846,3.846,0,0,0-4.429-2.847,3.764,3.764,0,0,0-2.978,3.661,4.287,4.287,0,0,0,.028.5,3.764,3.764,0,0,0-1.9,3.249,4.14,4.14,0,0,0,.122.974L6.435,37.486a4.6,4.6,0,0,0,1.423,2.3l6.321,5.628a2.821,2.821,0,0,1,.946,2.1v2.06a.936.936,0,0,0-.936.936V58a.936.936,0,0,0,.936.936h13.11A.936.936,0,0,0,29.172,58V50.511A.936.936,0,0,0,28.235,49.575Zm-22.25-32a1.873,1.873,0,0,1,1.48-1.826,2.024,2.024,0,0,1,2.266,1.564L13.5,28.168a3.933,3.933,0,0,0-1.255.356L9.647,20.508A3.885,3.885,0,0,0,5.986,17.6Zm9.439,26.436-6.33-5.628a2.776,2.776,0,0,1-.843-1.377L4.169,21.81a1.986,1.986,0,0,1-.056-.487A1.873,1.873,0,0,1,5.592,19.5a2.008,2.008,0,0,1,2.257,1.545l2.875,8.877L10.668,30a3.752,3.752,0,0,0-.375,2.837,3.7,3.7,0,0,0,1.751,2.276l5.366,3.1a.936.936,0,0,0,.936-1.62l-5.366-3.1a1.873,1.873,0,0,1-.88-1.133,1.929,1.929,0,0,1,.187-1.423,1.873,1.873,0,0,1,2.556-.693L23.122,35.1a6.6,6.6,0,0,1,3.24,5.656v8.821H17v-2.06A4.71,4.71,0,0,0,15.425,44.013ZM27.3,57.066H16.062V51.448H27.3Z" transform="translate(0 -0.741)" fill="#fff"/>
    <path id="Path_204" data-name="Path 204" d="M44.163,4.946a9.359,9.359,0,0,0-13.247,0h0A9.363,9.363,0,1,0,17.668,18.182L30.254,30.768a.936.936,0,0,0,1.324,0L44.164,18.182a9.37,9.37,0,0,0,0-13.236ZM30.915,28.782,18.991,16.858a7.491,7.491,0,0,1,5.3-12.785,7.413,7.413,0,0,1,5.294,2.2l.665.665a.936.936,0,0,0,1.324,0l.667-.667A7.489,7.489,0,0,1,42.839,16.856Z" transform="translate(-0.807 0)" fill="#fff"/>
  </g>
</svg>
