<svg xmlns="http://www.w3.org/2000/svg" width="61.6" height="55.596" viewBox="0 0 61.6 55.596">
  <g id="heart" transform="translate(0 -0.5)">
    <path id="Path_205" data-name="Path 205" d="M41.2,262.6a1.2,1.2,0,1,0,1.2,1.2A1.2,1.2,0,0,0,41.2,262.6Zm0,0" transform="translate(-35.187 -230.564)" fill="#fff"/>
    <path id="Path_206" data-name="Path 206" d="M55.3,231.582l-11.342,3.9a4.8,4.8,0,0,0-4.734-5.665H31.43a1.2,1.2,0,0,1-.591-.155l-6.356-3.575A8.429,8.429,0,0,0,20.353,225H11.824a3.614,3.614,0,0,0-3.4-2.406H1.2A1.2,1.2,0,0,0,0,223.8v21.656a1.2,1.2,0,0,0,1.2,1.2H8.422a3.617,3.617,0,0,0,3.368-2.316,10.984,10.984,0,0,1,3.928,1.166l6.292,3.775a15.338,15.338,0,0,0,14.238.813L58.7,240.21a4.638,4.638,0,0,0-3.406-8.628ZM9.625,243.056a1.2,1.2,0,0,1-1.2,1.2H2.406V225H8.422a1.2,1.2,0,0,1,1.2,1.2Zm48.165-5.071-.038.016-22.493,9.9a12.93,12.93,0,0,1-12.01-.682l-6.292-3.775a13.266,13.266,0,0,0-4.925-1.5V227.41h8.322a6.019,6.019,0,0,1,2.95.773l6.356,3.575a3.615,3.615,0,0,0,1.771.464h7.791a2.406,2.406,0,1,1,0,4.813H26.991a1.2,1.2,0,1,0,0,2.406H39.221a4.8,4.8,0,0,0,2.255-.564l14.629-5.029a2.233,2.233,0,1,1,1.684,4.136Zm0,0" transform="translate(0 -195.376)" fill="#fff"/>
    <path id="Path_207" data-name="Path 207" d="M175.745,29.682a1.2,1.2,0,0,0,1.576,0c9.816-8.507,15.888-12.813,15.888-19.5C193.21,4.886,189.463.5,184.2.5c-3.457,0-6.1,1.993-7.81,4.983C174.688,2.5,172.044.5,168.581.5A8.886,8.886,0,0,0,160,7.153a1.2,1.2,0,1,0,2.309.677,6.528,6.528,0,0,1,6.275-4.923c3.432,0,5.84,3.048,6.649,5.885a1.2,1.2,0,0,0,2.319,0c.016-.059,1.688-5.885,6.65-5.885,3.765,0,6.6,3.126,6.6,7.273,0,5.352-5.232,9.211-14.271,17-5.508-4.73-9.883-8.059-12.369-11.316a1.2,1.2,0,1,0-1.913,1.46C165.054,21,169.785,24.516,175.745,29.682Zm0,0" transform="translate(-140.705)" fill="#fff"/>
    <path id="Path_208" data-name="Path 208" d="M160.2,88.6a1.2,1.2,0,1,0,1.2,1.2A1.2,1.2,0,0,0,160.2,88.6Zm0,0" transform="translate(-139.87 -77.498)" fill="#fff"/>
  </g>
</svg>
