<svg xmlns="http://www.w3.org/2000/svg" width="46.364" height="46.417" viewBox="0 0 46.364 46.417">
  <g id="money-back" transform="translate(-0.291)">
    <g id="Group_235" data-name="Group 235" transform="translate(0.292 25.367)">
      <g id="Group_234" data-name="Group 234">
        <path id="Path_140" data-name="Path 140" d="M46.044,281.412a3.9,3.9,0,0,0-2.828-1.594,2.806,2.806,0,0,0-2.277.851c-.126.134-.263.28-.407.438a3.875,3.875,0,0,0-2.312-1.016,2.807,2.807,0,0,0-2.277.851c-1.253,1.326-3.471,3.916-5.213,5.978a3.608,3.608,0,0,0-.727-.328c-.833-.359-12.31-5.26-17.4-5.26-8.218,0-11.994,4.417-12.151,4.605a.681.681,0,0,0,1.045.874,10.623,10.623,0,0,1,2.692-2.061,16.978,16.978,0,0,1,8.413-2.056c4.888,0,16.77,5.111,16.889,5.162a3.885,3.885,0,0,1,.643.3,2.206,2.206,0,0,1,.5.458,2.224,2.224,0,0,1-.79,3.407,2.3,2.3,0,0,1-1.632.1l-7.434-2.047a.681.681,0,1,0-.362,1.314l7.423,2.045a3.591,3.591,0,0,0,4.642-3.267l1.994-.21a.682.682,0,0,0,.452-.242c.049-.059,4.938-5.928,7-8.111.857-.908,2.387-.264,3.006.6.952,1.33-.231,2.781-.616,3.195-1.893,2.031-5.363,6.214-5.987,6.968L24.208,299.43l-7.267-3.06a.681.681,0,0,0-.529,1.256l7.556,3.182a.687.687,0,0,0,.569-.018l14.534-7.267a.681.681,0,0,0,.221-.176c.04-.048,4.012-4.859,6.025-7.018C46.8,284.739,47.077,282.855,46.044,281.412ZM34.06,288.631l-1.775.187a3.639,3.639,0,0,0-.536-.992c1.484-1.756,3.895-4.583,5.185-5.949a1.46,1.46,0,0,1,1.194-.427,2.518,2.518,0,0,1,1.494.669C37.578,284.427,34.795,287.751,34.06,288.631Z" transform="translate(-0.297 -279.811)" fill="#491e3c"/>
      </g>
    </g>
    <g id="Group_237" data-name="Group 237" transform="translate(0.291 39.242)">
      <g id="Group_236" data-name="Group 236" transform="translate(0)">
        <path id="Path_141" data-name="Path 141" d="M13.591,434.126,10.684,432.9a.681.681,0,0,0-.264-.053H.972a.681.681,0,0,0,0,1.363h9.31l2.78,1.17a.681.681,0,0,0,.529-1.256Z" transform="translate(-0.291 -432.849)" fill="#491e3c"/>
      </g>
    </g>
    <g id="Group_239" data-name="Group 239" transform="translate(9.738)">
      <g id="Group_238" data-name="Group 238">
        <path id="Path_142" data-name="Path 142" d="M131.244,22.716l-2.9.414a13.763,13.763,0,1,0-21.028-1.025,13.862,13.862,0,0,0,7.123,4.88.681.681,0,0,0,.378-1.309,12.4,12.4,0,1,1,15.844-11.915,12.309,12.309,0,0,1-3.724,8.861V19.03a.681.681,0,0,0-1.363,0v5.087a.689.689,0,0,0,.778.675l5.087-.727a.681.681,0,1,0-.193-1.349Z" transform="translate(-104.498)" fill="#491e3c"/>
      </g>
    </g>
    <g id="Group_241" data-name="Group 241" transform="translate(19.912 7.267)">
      <g id="Group_240" data-name="Group 240">
        <path id="Path_143" data-name="Path 143" d="M220.305,85.969h-.727a1.5,1.5,0,0,1,0-3h2.907a.681.681,0,1,0,0-1.363h-1.5v-.772a.681.681,0,0,0-1.363,0v.772h-.045a2.861,2.861,0,1,0,0,5.723h.727a1.5,1.5,0,1,1,0,3H217.4a.681.681,0,0,0,0,1.363h2.226v.772a.681.681,0,1,0,1.363,0v-.855a2.861,2.861,0,0,0-.681-5.64Z" transform="translate(-216.717 -80.155)" fill="#491e3c"/>
      </g>
    </g>
  </g>
</svg>
