<svg id="network" xmlns="http://www.w3.org/2000/svg" width="56" height="56" viewBox="0 0 56 56">
  <g id="Group_46" data-name="Group 46" transform="translate(48.533 11.2)">
    <g id="Group_45" data-name="Group 45">
      <path id="Path_81" data-name="Path 81" d="M447.467,102.4a3.733,3.733,0,1,0,3.733,3.733A3.737,3.737,0,0,0,447.467,102.4Zm0,5.6a1.867,1.867,0,1,1,1.867-1.867A1.869,1.869,0,0,1,447.467,108Z" transform="translate(-443.734 -102.4)" fill="#431c53"/>
    </g>
  </g>
  <g id="Group_48" data-name="Group 48" transform="translate(0 42)">
    <g id="Group_47" data-name="Group 47">
      <path id="Path_82" data-name="Path 82" d="M3.733,384a3.733,3.733,0,1,0,3.733,3.733A3.737,3.737,0,0,0,3.733,384Zm0,5.6A1.867,1.867,0,1,1,5.6,387.733,1.869,1.869,0,0,1,3.733,389.6Z" transform="translate(0 -384)" fill="#431c53"/>
    </g>
  </g>
  <g id="Group_50" data-name="Group 50" transform="translate(41.066 8.399)">
    <g id="Group_49" data-name="Group 49">
      <path id="Path_83" data-name="Path 83" d="M384.853,80.772,376.8,76.885a.933.933,0,1,0-.811,1.681l8.052,3.887a.933.933,0,0,0,.811-1.681Z" transform="translate(-375.463 -76.792)" fill="#431c53"/>
    </g>
  </g>
  <g id="Group_52" data-name="Group 52" transform="translate(38.267 48.533)">
    <g id="Group_51" data-name="Group 51">
      <path id="Path_84" data-name="Path 84" d="M353.6,443.733a3.733,3.733,0,1,0,3.733,3.733A3.737,3.737,0,0,0,353.6,443.733Zm0,5.6a1.867,1.867,0,1,1,1.867-1.867A1.869,1.869,0,0,1,353.6,449.333Z" transform="translate(-349.867 -443.733)" fill="#431c53"/>
    </g>
  </g>
  <g id="Group_54" data-name="Group 54" transform="translate(30.8 45.732)">
    <g id="Group_53" data-name="Group 53">
      <path id="Path_85" data-name="Path 85" d="M290.986,422.105l-8.052-3.887a.933.933,0,1,0-.811,1.681l8.052,3.887a.933.933,0,0,0,.811-1.681Z" transform="translate(-281.596 -418.124)" fill="#431c53"/>
    </g>
  </g>
  <g id="Group_56" data-name="Group 56" transform="translate(24.267 25.2)">
    <g id="Group_55" data-name="Group 55">
      <path id="Path_86" data-name="Path 86" d="M225.6,230.4a3.733,3.733,0,1,0,3.733,3.733A3.737,3.737,0,0,0,225.6,230.4Zm0,5.6a1.867,1.867,0,1,1,1.867-1.867A1.869,1.869,0,0,1,225.6,236Z" transform="translate(-221.867 -230.4)" fill="#431c53"/>
    </g>
  </g>
  <g id="Group_58" data-name="Group 58" transform="translate(18.666 21.467)">
    <g id="Group_57" data-name="Group 57">
      <path id="Path_87" data-name="Path 87" d="M178.357,201.289l-6.185-4.821a.934.934,0,1,0-1.148,1.473l6.185,4.821a.934.934,0,1,0,1.148-1.473Z" transform="translate(-170.664 -196.272)" fill="#431c53"/>
    </g>
  </g>
  <g id="Group_60" data-name="Group 60" transform="translate(34.533 24.267)">
    <g id="Group_59" data-name="Group 59">
      <path id="Path_88" data-name="Path 88" d="M326,221.867a10.267,10.267,0,1,0,10.267,10.267A10.279,10.279,0,0,0,326,221.867Zm0,18.667a8.4,8.4,0,1,1,8.4-8.4A8.409,8.409,0,0,1,326,240.534Z" transform="translate(-315.733 -221.867)" fill="#431c53"/>
    </g>
  </g>
  <g id="Group_62" data-name="Group 62" transform="translate(41.067 28)">
    <g id="Group_61" data-name="Group 61">
      <path id="Path_89" data-name="Path 89" d="M379.2,256a3.733,3.733,0,1,0,3.733,3.733A3.737,3.737,0,0,0,379.2,256Zm0,5.6a1.867,1.867,0,1,1,1.867-1.867A1.869,1.869,0,0,1,379.2,261.6Z" transform="translate(-375.467 -256)" fill="#431c53"/>
    </g>
  </g>
  <g id="Group_64" data-name="Group 64" transform="translate(39.2 37.333)">
    <g id="Group_63" data-name="Group 63">
      <path id="Path_90" data-name="Path 90" d="M366.708,341.333h-5.415a2.857,2.857,0,0,0-2.892,2.814v2.46a.934.934,0,0,0,.466.808,10.215,10.215,0,0,0,10.269,0,.932.932,0,0,0,.466-.807v-2.46A2.858,2.858,0,0,0,366.708,341.333Zm1.026,4.718a8.463,8.463,0,0,1-7.467,0v-1.9a.99.99,0,0,1,1.026-.948h5.415a.99.99,0,0,1,1.026.948v1.9Z" transform="translate(-358.4 -341.333)" fill="#431c53"/>
    </g>
  </g>
  <g id="Group_66" data-name="Group 66" transform="translate(12.133 35.467)">
    <g id="Group_65" data-name="Group 65">
      <path id="Path_91" data-name="Path 91" d="M121.2,324.267a10.267,10.267,0,1,0,10.267,10.267A10.279,10.279,0,0,0,121.2,324.267Zm0,18.667a8.4,8.4,0,1,1,8.4-8.4A8.409,8.409,0,0,1,121.2,342.934Z" transform="translate(-110.933 -324.267)" fill="#431c53"/>
    </g>
  </g>
  <g id="Group_68" data-name="Group 68" transform="translate(18.667 39.2)">
    <g id="Group_67" data-name="Group 67">
      <path id="Path_92" data-name="Path 92" d="M174.4,358.4a3.733,3.733,0,1,0,3.733,3.733A3.737,3.737,0,0,0,174.4,358.4Zm0,5.6a1.867,1.867,0,1,1,1.867-1.867A1.869,1.869,0,0,1,174.4,364Z" transform="translate(-170.667 -358.4)" fill="#431c53"/>
    </g>
  </g>
  <g id="Group_70" data-name="Group 70" transform="translate(16.8 48.533)">
    <g id="Group_69" data-name="Group 69">
      <path id="Path_93" data-name="Path 93" d="M161.908,443.733h-5.415a2.857,2.857,0,0,0-2.892,2.814v2.46a.934.934,0,0,0,.466.808,10.214,10.214,0,0,0,10.269,0,.932.932,0,0,0,.466-.807v-2.46A2.858,2.858,0,0,0,161.908,443.733Zm1.026,4.718a8.463,8.463,0,0,1-7.467,0v-1.9a.991.991,0,0,1,1.026-.948h5.415a.991.991,0,0,1,1.026.948v1.9Z" transform="translate(-153.6 -443.733)" fill="#431c53"/>
    </g>
  </g>
  <g id="Group_72" data-name="Group 72" transform="translate(0 12.133)">
    <g id="Group_71" data-name="Group 71">
      <path id="Path_94" data-name="Path 94" d="M10.267,110.933A10.267,10.267,0,1,0,20.533,121.2,10.279,10.279,0,0,0,10.267,110.933Zm0,18.667a8.4,8.4,0,1,1,8.4-8.4A8.409,8.409,0,0,1,10.267,129.6Z" transform="translate(0 -110.933)" fill="#431c53"/>
    </g>
  </g>
  <g id="Group_74" data-name="Group 74" transform="translate(6.533 15.867)">
    <g id="Group_73" data-name="Group 73">
      <path id="Path_95" data-name="Path 95" d="M63.467,145.067A3.733,3.733,0,1,0,67.2,148.8,3.737,3.737,0,0,0,63.467,145.067Zm0,5.6a1.867,1.867,0,1,1,1.867-1.867A1.869,1.869,0,0,1,63.467,150.667Z" transform="translate(-59.734 -145.067)" fill="#431c53"/>
    </g>
  </g>
  <g id="Group_76" data-name="Group 76" transform="translate(4.667 25.2)">
    <g id="Group_75" data-name="Group 75">
      <path id="Path_96" data-name="Path 96" d="M50.975,230.4H45.559a2.857,2.857,0,0,0-2.892,2.814v2.46a.934.934,0,0,0,.466.808,10.214,10.214,0,0,0,10.269,0,.932.932,0,0,0,.466-.807v-2.46A2.858,2.858,0,0,0,50.975,230.4ZM52,235.118a8.463,8.463,0,0,1-7.467,0v-1.9a.991.991,0,0,1,1.026-.948h5.415a.991.991,0,0,1,1.026.948v1.9Z" transform="translate(-42.667 -230.4)" fill="#431c53"/>
    </g>
  </g>
  <g id="Group_78" data-name="Group 78" transform="translate(22.4)">
    <g id="Group_77" data-name="Group 77">
      <path id="Path_97" data-name="Path 97" d="M215.067,0a10.267,10.267,0,1,0,10.267,10.267A10.279,10.279,0,0,0,215.067,0Zm0,18.667a8.4,8.4,0,1,1,8.4-8.4A8.409,8.409,0,0,1,215.067,18.667Z" transform="translate(-204.8)" fill="#431c53"/>
    </g>
  </g>
  <g id="Group_80" data-name="Group 80" transform="translate(28.933 3.733)">
    <g id="Group_79" data-name="Group 79">
      <path id="Path_98" data-name="Path 98" d="M268.267,34.133A3.733,3.733,0,1,0,272,37.866,3.737,3.737,0,0,0,268.267,34.133Zm0,5.6a1.867,1.867,0,1,1,1.867-1.867A1.869,1.869,0,0,1,268.267,39.733Z" transform="translate(-264.534 -34.133)" fill="#431c53"/>
    </g>
  </g>
  <g id="Group_82" data-name="Group 82" transform="translate(27.067 13.067)">
    <g id="Group_81" data-name="Group 81">
      <path id="Path_99" data-name="Path 99" d="M255.775,119.467h-5.415a2.858,2.858,0,0,0-2.892,2.814v2.46a.934.934,0,0,0,.466.808,10.214,10.214,0,0,0,10.269,0,.932.932,0,0,0,.466-.807v-2.46A2.858,2.858,0,0,0,255.775,119.467Zm1.026,4.718a8.463,8.463,0,0,1-7.467,0v-1.9a.991.991,0,0,1,1.026-.948h5.415a.991.991,0,0,1,1.026.948v1.9Z" transform="translate(-247.467 -119.467)" fill="#431c53"/>
    </g>
  </g>
  <g id="Group_84" data-name="Group 84" transform="translate(15.933 9.333)">
    <g id="Group_83" data-name="Group 83">
      <path id="Path_100" data-name="Path 100" d="M153.782,85.659a.935.935,0,0,0-1.316-.1L146,91.092a.933.933,0,1,0,1.213,1.418l6.468-5.535A.933.933,0,0,0,153.782,85.659Z" transform="translate(-145.671 -85.333)" fill="#431c53"/>
    </g>
  </g>
  <g id="Group_86" data-name="Group 86" transform="translate(37.333 16.801)">
    <g id="Group_85" data-name="Group 85">
      <path id="Path_101" data-name="Path 101" d="M348.613,161.45l-5.6-7.467a.933.933,0,0,0-1.493,1.119l5.6,7.467a.933.933,0,0,0,1.493-1.119Z" transform="translate(-341.333 -153.61)" fill="#431c53"/>
    </g>
  </g>
  <g id="Group_88" data-name="Group 88" transform="translate(30.06 37.247)">
    <g id="Group_87" data-name="Group 87">
      <path id="Path_102" data-name="Path 102" d="M281.727,340.913a.934.934,0,0,0-1.307-.187l-5.214,3.91a.933.933,0,0,0,1.12,1.492l5.214-3.91A.932.932,0,0,0,281.727,340.913Z" transform="translate(-274.833 -340.54)" fill="#431c53"/>
    </g>
  </g>
  <g id="Group_90" data-name="Group 90" transform="translate(5.6 44.8)">
    <g id="Group_89" data-name="Group 89">
      <path id="Path_103" data-name="Path 103" d="M58.667,409.6H52.133a.933.933,0,0,0,0,1.867h6.533a.933.933,0,0,0,0-1.867Z" transform="translate(-51.2 -409.6)" fill="#431c53"/>
    </g>
  </g>
  <g id="Group_92" data-name="Group 92" transform="translate(6.533)">
    <g id="Group_91" data-name="Group 91">
      <path id="Path_104" data-name="Path 104" d="M63.466,0A3.733,3.733,0,1,0,67.2,3.733,3.737,3.737,0,0,0,63.466,0Zm0,5.6a1.867,1.867,0,1,1,1.867-1.867A1.869,1.869,0,0,1,63.466,5.6Z" transform="translate(-59.733)" fill="#431c53"/>
    </g>
  </g>
  <g id="Group_94" data-name="Group 94" transform="translate(9.333 5.6)">
    <g id="Group_93" data-name="Group 93">
      <path id="Path_105" data-name="Path 105" d="M86.267,51.2a.933.933,0,0,0-.933.933v6.533a.933.933,0,0,0,1.867,0V52.133A.933.933,0,0,0,86.267,51.2Z" transform="translate(-85.334 -51.2)" fill="#431c53"/>
    </g>
  </g>
</svg>
