<svg xmlns="http://www.w3.org/2000/svg" width="14.717" height="17.366" viewBox="0 0 14.717 17.366">
  <g id="shopping-bag" transform="translate(-15.358)">
    <g id="Group_13" data-name="Group 13" transform="translate(20.639)">
      <g id="Group_12" data-name="Group 12">
        <path id="Path_10" data-name="Path 10" d="M81.148,2.146a2.5,2.5,0,0,0-4.5-1.118.294.294,0,1,0,.475.347,1.914,1.914,0,0,1,3.44.854.3.3,0,0,0,.291.253l.042,0A.294.294,0,0,0,81.148,2.146Z" transform="translate(-76.593)" fill="#431c53"/>
      </g>
    </g>
    <g id="Group_15" data-name="Group 15" transform="translate(15.947 3.826)">
      <g id="Group_14" data-name="Group 14" transform="translate(0)">
        <path id="Path_11" data-name="Path 11" d="M35.682,45.987,34.8,44.515a.294.294,0,0,0-.252-.143H33.7a.294.294,0,1,0,0,.589h.68l.53.883H23l.53-.883h.312a.294.294,0,1,0,0-.589h-.478a.294.294,0,0,0-.252.143l-.883,1.472a.294.294,0,0,0,.252.446H35.43a.294.294,0,0,0,.252-.446Z" transform="translate(-22.185 -44.372)" fill="#431c53"/>
      </g>
    </g>
    <g id="Group_17" data-name="Group 17" transform="translate(23.118 1.649)">
      <g id="Group_16" data-name="Group 16" transform="translate(0)">
        <path id="Path_12" data-name="Path 12" d="M110.2,20.2a.294.294,0,0,0-.183-.131l-4.012-.938a.294.294,0,0,0-.354.22l-.3,1.293a.294.294,0,0,0,.573.134l.236-1.007,3.439.8-.54,2.311a.294.294,0,0,0,.22.353.3.3,0,0,0,.067.008.294.294,0,0,0,.286-.227l.607-2.6A.293.293,0,0,0,110.2,20.2Z" transform="translate(-105.343 -19.126)" fill="#431c53"/>
      </g>
    </g>
    <g id="Group_19" data-name="Group 19" transform="translate(17.095 0.895)">
      <g id="Group_18" data-name="Group 18">
        <path id="Path_13" data-name="Path 13" d="M41.272,12.9,41,10.633a.295.295,0,0,0-.327-.258l-4.923.582a.294.294,0,0,0-.258.327l.447,3.783a.294.294,0,0,0,.292.26l.035,0A.3.3,0,0,0,36.528,15l-.413-3.491,4.338-.513.234,1.976a.294.294,0,0,0,.585-.069Z" transform="translate(-35.494 -10.374)" fill="#431c53"/>
      </g>
    </g>
    <g id="Group_21" data-name="Group 21" transform="translate(19.294 2.826)">
      <g id="Group_20" data-name="Group 20" transform="translate(0)">
        <path id="Path_14" data-name="Path 14" d="M66.9,35.424l-.584-2.429a.294.294,0,0,0-.355-.217l-4.742,1.14a.294.294,0,0,0-.217.355l.292,1.214a.294.294,0,1,0,.572-.138l-.223-.928,4.169-1,.515,2.143a.294.294,0,0,0,.572-.138Z" transform="translate(-60.997 -32.769)" fill="#431c53"/>
      </g>
    </g>
    <g id="Group_23" data-name="Group 23" transform="translate(15.359 5.298)">
      <g id="Group_22" data-name="Group 22" transform="translate(0)">
        <path id="Path_15" data-name="Path 15" d="M29.486,61.72a.294.294,0,0,0-.294-.279H16.242a.294.294,0,0,0-.294.279L15.359,73.2a.294.294,0,0,0,.294.309H29.781a.294.294,0,0,0,.294-.309ZM15.963,72.92l.559-10.89H28.912l.559,10.89Z" transform="translate(-15.359 -61.441)" fill="#431c53"/>
      </g>
    </g>
    <g id="Group_25" data-name="Group 25" transform="translate(24.041 6.475)">
      <g id="Group_24" data-name="Group 24">
        <path id="Path_16" data-name="Path 16" d="M116.935,75.093a.883.883,0,1,0,.883.883A.884.884,0,0,0,116.935,75.093Zm0,1.177a.294.294,0,1,1,.294-.294A.295.295,0,0,1,116.935,76.27Z" transform="translate(-116.052 -75.093)" fill="#431c53"/>
      </g>
    </g>
    <g id="Group_27" data-name="Group 27" transform="translate(19.626 6.475)">
      <g id="Group_26" data-name="Group 26">
        <path id="Path_17" data-name="Path 17" d="M65.735,75.093a.883.883,0,1,0,.883.883A.884.884,0,0,0,65.735,75.093Zm0,1.177a.294.294,0,1,1,.294-.294A.295.295,0,0,1,65.735,76.27Z" transform="translate(-64.852 -75.093)" fill="#431c53"/>
      </g>
    </g>
    <g id="Group_29" data-name="Group 29" transform="translate(20.215 7.358)">
      <g id="Group_28" data-name="Group 28">
        <path id="Path_18" data-name="Path 18" d="M76.388,85.333h-.023a.294.294,0,0,0-.294.294.291.291,0,0,0,.023.113v1.505a1.913,1.913,0,0,1-3.826,0V85.627a.294.294,0,1,0-.589,0v1.619a2.5,2.5,0,0,0,5,0V85.627A.294.294,0,0,0,76.388,85.333Z" transform="translate(-71.679 -85.333)" fill="#431c53"/>
      </g>
    </g>
  </g>
</svg>
