<svg xmlns="http://www.w3.org/2000/svg" width="46.417" height="46.417" viewBox="0 0 46.417 46.417">
  <g id="social-care" transform="translate(-0.001)">
    <g id="Group_243" data-name="Group 243" transform="translate(6.947 42.681)">
      <g id="Group_242" data-name="Group 242">
        <path id="Path_144" data-name="Path 144" d="M79.635,473.1l-1.365-1.923a.907.907,0,1,0-1.478,1.05l1.365,1.923a.907.907,0,1,0,1.478-1.05Z" transform="translate(-76.624 -470.791)" fill="#491e3c"/>
      </g>
    </g>
    <g id="Group_245" data-name="Group 245" transform="translate(0.001 14.184)">
      <g id="Group_244" data-name="Group 244" transform="translate(0)">
        <path id="Path_145" data-name="Path 145" d="M20.418,187.592l-1.485-7.079a13.351,13.351,0,0,0-5.646-8.382L10.115,170a3.19,3.19,0,0,0-4.044.413V159.487a3.035,3.035,0,0,0-4.934-2.367A3.021,3.021,0,0,0,0,159.487v14.057a8.782,8.782,0,0,0,1.63,5.11l1.617,2.277a.907.907,0,0,0,1.478-1.05L3.109,177.6a6.978,6.978,0,0,1-1.295-4.061V159.487a1.222,1.222,0,1,1,2.443,0v11.152a6.334,6.334,0,0,0,1.634,4.253c.045.054.092.108.141.16.6.638,1.31,1.39,1.977,2.1l.933.993.009.009,1.4,1.489a.907.907,0,1,0,1.322-1.241c-.016-.018-1.078-1.148-2.29-2.436L7.3,173.753l-.015-.017a1.53,1.53,0,0,1,.03-2A1.371,1.371,0,0,1,9.1,171.5l3.171,2.132a11.547,11.547,0,0,1,4.884,7.249l1.485,7.079a.907.907,0,1,0,1.774-.372Z" transform="translate(-0.001 -156.451)" fill="#491e3c"/>
      </g>
    </g>
    <g id="Group_247" data-name="Group 247" transform="translate(5.067 40.032)">
      <g id="Group_246" data-name="Group 246">
        <path id="Path_146" data-name="Path 146" d="M57.534,441.964l-.006-.008a.907.907,0,0,0-1.476,1.053l.006.008a.907.907,0,0,0,1.476-1.053Z" transform="translate(-55.884 -441.575)" fill="#491e3c"/>
      </g>
    </g>
    <g id="Group_249" data-name="Group 249" transform="translate(25.982 14.184)">
      <g id="Group_248" data-name="Group 248">
        <path id="Path_147" data-name="Path 147" d="M305.88,157.122a3.035,3.035,0,0,0-4.934,2.367v10.924A3.19,3.19,0,0,0,296.9,170l-3.171,2.132a13.351,13.351,0,0,0-5.646,8.382l-1.485,7.079a.907.907,0,1,0,1.774.372l1.485-7.079a11.547,11.547,0,0,1,4.884-7.249l3.171-2.132a1.371,1.371,0,0,1,1.785.228,1.53,1.53,0,0,1,.031,2l-.017.019-4.368,4.648a.907.907,0,1,0,1.322,1.241c.012-.013,3.717-3.952,4.319-4.59.049-.052.1-.106.141-.16a6.335,6.335,0,0,0,1.634-4.253V159.489a1.222,1.222,0,1,1,2.443,0v14.057a6.978,6.978,0,0,1-1.295,4.061l-6.849,9.648a.907.907,0,1,0,1.478,1.05l6.849-9.648a8.782,8.782,0,0,0,1.63-5.11V159.489A3.021,3.021,0,0,0,305.88,157.122Z" transform="translate(-286.58 -156.454)" fill="#491e3c"/>
      </g>
    </g>
    <g id="Group_251" data-name="Group 251" transform="translate(8.467 4.896)">
      <g id="Group_250" data-name="Group 250">
        <path id="Path_148" data-name="Path 148" d="M119.614,66.48,118,66.095v-.289a4.055,4.055,0,0,0,1.736-3.325v-2.1a4.054,4.054,0,0,0-6.69-3.084,5.293,5.293,0,0,0-9.811.007,4.054,4.054,0,0,0-6.7,3.076v2.1a4.055,4.055,0,0,0,1.736,3.325v.289l-1.613.385a4.247,4.247,0,0,0-3.271,4.144v1.693a.907.907,0,0,0,.907.907h4.166c-.006.11-.011.22-.011.332v3.26a.907.907,0,0,0,.907.907h5.449a.907.907,0,0,0,0-1.813h-.937V74.035a.907.907,0,0,0-1.813,0v1.874h-1.793V73.556a3.754,3.754,0,0,1,2.888-3.662l2.488-.6,1.665,3.788a.907.907,0,0,0,.83.542h0a.907.907,0,0,0,.83-.542l1.663-3.782,2.48.592A3.753,3.753,0,0,1,116,73.558v2.351h-1.793V74.035a.907.907,0,0,0-1.813,0v1.874h-1.027a.907.907,0,1,0,0,1.813h5.54a.907.907,0,0,0,.907-.907V73.558c0-.112,0-.224-.011-.335h4.178a.907.907,0,0,0,.907-.907V70.624A4.247,4.247,0,0,0,119.614,66.48Zm-3.935-8.34a2.247,2.247,0,0,1,2.239,2.1h-1.26a6.608,6.608,0,0,1-3.04-.741A2.247,2.247,0,0,1,115.68,58.14Zm-2.244,4.209c0-.044,0-.088,0-.133v-.807a8.421,8.421,0,0,0,3.22.641h1.265v.432a2.244,2.244,0,1,1-4.489,0ZM104.661,59.3h0a3.482,3.482,0,0,1,6.92-.553l-1.526-.9a.906.906,0,0,0-1.154.2,3.906,3.906,0,0,1-3,1.4h-1.239ZM100.6,58.14a2.248,2.248,0,0,1,2.061,1.355,6.608,6.608,0,0,1-3.04.741h-1.26A2.247,2.247,0,0,1,100.6,58.14Zm-2.244,3.909h1.265a8.422,8.422,0,0,0,3.223-.642v1.074a2.244,2.244,0,0,1-4.489,0Zm4.379,6.082a5.56,5.56,0,0,0-3.853,3.28H95.2v-.787a2.44,2.44,0,0,1,1.879-2.381l2.309-.552a.907.907,0,0,0,.7-.882v-.3a3.935,3.935,0,0,0,1.014,0v.259c0,.014,0,.027,0,.041a.908.908,0,0,0,.737.892l1.352.324Zm2.529-1.407a4.254,4.254,0,0,0-.726-.245l-1.62-.388v-.282a4.091,4.091,0,0,0,.786-.718,5.337,5.337,0,0,0,1.56,1.563v.07Zm3.937,1.332-1.061,2.413-1.063-2.419V67.4a5.313,5.313,0,0,0,2.124,0ZM108.143,65.7a3.486,3.486,0,0,1-3.482-3.482v-.958H105.9a5.712,5.712,0,0,0,3.852-1.488l1.87,1.1v1.48A3.486,3.486,0,0,1,108.143,65.7Zm2.866,1.028v-.061a5.335,5.335,0,0,0,1.573-1.567,4.09,4.09,0,0,0,.779.71v.282l-1.62.388A4.269,4.269,0,0,0,111.01,66.726Zm10.062,4.684h-3.687a5.559,5.559,0,0,0-3.855-3.278l-.455-.109,1.36-.326a.908.908,0,0,0,.741-.893c0-.007,0-.014,0-.021v-.278a3.935,3.935,0,0,0,1.014,0v.3a.907.907,0,0,0,.7.882l2.309.552a2.44,2.44,0,0,1,1.879,2.381v.787Z" transform="translate(-93.39 -54)" fill="#491e3c"/>
      </g>
    </g>
    <g id="Group_253" data-name="Group 253" transform="translate(22.303 26.805)">
      <g id="Group_252" data-name="Group 252">
        <path id="Path_149" data-name="Path 149" d="M247.547,295.935a.907.907,0,1,0,.266.642A.914.914,0,0,0,247.547,295.935Z" transform="translate(-246 -295.67)" fill="#491e3c"/>
      </g>
    </g>
    <g id="Group_255" data-name="Group 255" transform="translate(22.302)">
      <g id="Group_254" data-name="Group 254">
        <path id="Path_150" data-name="Path 150" d="M246.9,0a.907.907,0,0,0-.907.907V2.263a.907.907,0,0,0,1.813,0V.907A.907.907,0,0,0,246.9,0Z" transform="translate(-245.993)" fill="#491e3c"/>
      </g>
    </g>
    <g id="Group_257" data-name="Group 257" transform="translate(17.371 1.742)">
      <g id="Group_256" data-name="Group 256">
        <path id="Path_151" data-name="Path 151" d="M194.1,20.428l-.951-.95a.907.907,0,1,0-1.281,1.283l.951.95a.907.907,0,1,0,1.281-1.283Z" transform="translate(-191.599 -19.213)" fill="#491e3c"/>
      </g>
    </g>
    <g id="Group_259" data-name="Group 259" transform="translate(26.269 1.765)">
      <g id="Group_258" data-name="Group 258">
        <path id="Path_152" data-name="Path 152" d="M292.237,19.735a.907.907,0,0,0-1.282,0l-.944.945a.907.907,0,1,0,1.283,1.281l.944-.945A.907.907,0,0,0,292.237,19.735Z" transform="translate(-289.746 -19.469)" fill="#491e3c"/>
      </g>
    </g>
  </g>
</svg>
