<svg xmlns="http://www.w3.org/2000/svg" width="41.703" height="46.417" viewBox="0 0 41.703 46.417">
  <g id="XMLID_1820_" transform="translate(-26)">
    <g id="XMLID_426_" transform="translate(26)">
      <path id="XMLID_789_" d="M56.77,28.893H51.487v-2.06a8.916,8.916,0,0,0,3.836-4.892h1.219a4.9,4.9,0,0,0,3.182-8.632v-.435a12.873,12.873,0,0,0-25.747,0v.435a4.9,4.9,0,0,0,3.182,8.632h1.219a8.916,8.916,0,0,0,3.836,4.892v2.06H36.933A10.945,10.945,0,0,0,26,39.826V45.51a.907.907,0,0,0,.907.907h6a.907.907,0,1,0,0-1.813H27.813V39.826a9.13,9.13,0,0,1,9.12-9.12h.435l5.39,7.041a.906.906,0,0,0,.66.353l.06,0a.907.907,0,0,0,.641-.266l1.825-1.825V44.6H41.066a.907.907,0,1,0,0,1.813H66.8a.907.907,0,0,0,.907-.907V39.826A10.945,10.945,0,0,0,56.77,28.893Zm-5.519,1.813h2.8l-3.917,5.117-2-2ZM49.987,9.475a.906.906,0,0,0-1.282,0L47.5,10.688a7.115,7.115,0,0,1-5.072,2.1H39.782a7.07,7.07,0,0,1,14.139,0H52.348a3.437,3.437,0,0,1-2.857-1.536l.5-.5a.906.906,0,0,0,0-1.282Zm6.556,10.653h-.807V13.945h.807a3.091,3.091,0,0,1,0,6.183ZM46.851,1.813A11.074,11.074,0,0,1,57.9,12.323a4.887,4.887,0,0,0-1.355-.192H55.7a8.884,8.884,0,0,0-17.706,0H37.16a4.89,4.89,0,0,0-1.355.192A11.074,11.074,0,0,1,46.851,1.813ZM37.967,20.128H37.16a3.091,3.091,0,0,1,0-6.183h.807Zm1.813-.86V14.606h2.645a8.907,8.907,0,0,0,5.745-2.079,5.256,5.256,0,0,0,4.178,2.079h1.575v4.662a7.05,7.05,0,0,1-.146,1.431h-3.7a2.724,2.724,0,0,0-2.564-1.813H46.79a2.72,2.72,0,1,0,0,5.439h.725a2.724,2.724,0,0,0,2.564-1.813h3.049A7.072,7.072,0,0,1,39.78,19.268Zm8.642,2.338a.908.908,0,0,1-.907.907H46.79a.907.907,0,1,1,0-1.813h.725A.908.908,0,0,1,48.422,21.605Zm-1.57,6.534a8.861,8.861,0,0,0,2.823-.459v2.038l-2.823,2.823-2.823-2.823V27.68A8.861,8.861,0,0,0,46.851,28.139Zm-3.282,7.684-3.917-5.117h2.8l3.117,3.117ZM65.89,44.6H47.758V36.012l1.825,1.825a.907.907,0,0,0,.641.266l.06,0a.907.907,0,0,0,.66-.353l5.39-7.041h.435a9.13,9.13,0,0,1,9.12,9.12Z" transform="translate(-26)" fill="#491e3c"/>
      <path id="XMLID_841_" d="M342.925,438h-4.352a.907.907,0,1,0,0,1.813h4.352a.907.907,0,1,0,0-1.813Z" transform="translate(-309.412 -398.292)" fill="#491e3c"/>
      <path id="XMLID_842_" d="M138.1,492a.907.907,0,1,0,.641.266A.912.912,0,0,0,138.1,492Z" transform="translate(-127.11 -447.396)" fill="#491e3c"/>
    </g>
  </g>
</svg>
